<?xml version="1.0" encoding="utf-8"?>
<!-- Generator: Adobe Illustrator 23.0.3, SVG Export Plug-In . SVG Version: 6.00 Build 0)  -->
<svg version="1.1" id="Layer_1" xmlns="http://www.w3.org/2000/svg" xmlns:xlink="http://www.w3.org/1999/xlink" x="0px" y="0px"
	 viewBox="0 0 1200 1200" enable-background="new 0 0 1200 1200" xml:space="preserve">
<g>
	<path fill="#FFFFFF" d="M970.198,284.306c0.091-0.113,0.191-0.214,0.302-0.3C970.4,284.106,970.299,284.207,970.198,284.306z"/>
	<path fill="#FFFFFF" d="M822.966,194.397c0.402,0.028,0.734,0.095,1.033,0.18c-0.636,0.02-1.272,0.059-1.908,0.128
		C822.372,194.581,822.659,194.47,822.966,194.397z"/>
	<path fill="#FFFFFF" d="M940.878,471.2c-0.004,0.024-0.009,0.049-0.013,0.073c-0.023-0.001-0.044-0.006-0.067-0.006
		C940.825,471.241,940.85,471.226,940.878,471.2z"/>
	<path fill="#FFFFFF" d="M729.189,438.459c0.419,0.582,0.871,1.125,1.338,1.648c-0.279-0.027-0.598-0.054-0.98-0.077
		C729.429,439.513,729.308,438.982,729.189,438.459z"/>
	<path fill="#FFFFFF" d="M877.678,631.803c0.111-1.079,0.915-2.061,1.583-2.032C878.712,630.401,878.186,631.081,877.678,631.803z"
		/>
	<path fill="#FFFFFF" d="M855.624,98.448c0.472,0.441,0.911,0.937,1.337,1.454c-0.853,0.02-1.712,0.09-2.575,0.209
		C854.792,99.576,855.199,99.034,855.624,98.448z"/>
	<path fill="#FFFFFF" d="M894.6,531.416c0.071-0.011,0.15-0.031,0.222-0.044c-0.002,0.056-0.001,0.111-0.004,0.167
		C894.738,531.502,894.678,531.454,894.6,531.416z"/>
	<path fill="#FFFFFF" d="M254.915,444.401c0.09-0.456,0.165-0.925,0.282-1.353c0.048,0.485,0.093,0.944,0.145,1.464
		c0,0.001,0,0.001,0,0.002c0-0.001-0.001-0.001-0.001-0.001C255.199,444.476,255.057,444.438,254.915,444.401z"/>
	<path fill="#FFFFFF" d="M485.207,749.364c-0.04-0.024-0.079-0.049-0.119-0.073C485.129,749.306,485.168,749.333,485.207,749.364z"
		/>
	<path fill="#FFFFFF" d="M902.285,152.385c-0.428-1.44-1.06-2.786-1.884-4.045C902.369,148.746,902.805,150.479,902.285,152.385z"/>
	<path fill="#FFFFFF" d="M484.275,749.724c0.143-0.185,0.279-0.308,0.408-0.384c-0.029,0.171-0.058,0.343-0.088,0.513
		C484.486,749.812,484.378,749.771,484.275,749.724z"/>
	<path fill="#447E4E" d="M777.74,228.26c-9.785-2.555-20.408,0.049-29.505-5.233c-14.203,39.242-22.093,81.509-24.346,126.508
		c-1.337,26.692-0.178,53.116,3.093,79.241c0.747,3.277,1.485,6.513,2.208,9.683c0.419,0.582,0.871,1.125,1.338,1.648
		c0.9,0.087,1.333,0.168,1.704,0.057c4.805-1.449,10.978-11.076,13.042,2.879c0.519,3.509,6.315,3.298,7.687-0.215
		c3.559-9.119,10.701-12.244,19.091-12.319c0.929-6.348-7.133-5.282-6.746-10.33c23.3-5.377,23.299-5.378,40.87-26.298
		c0.342-0.408,0.874-0.656,1.317-0.979c-0.327-5.219,0.625-10.05,4.273-14.062l0,0l0,0l0.002,0c-0.151-5.6-4.17-11.303,0.446-16.776
		c0,0,0,0,0,0c-0.191-1.079-0.379-2.16-0.563-3.242l0,0c-5.654-4.595-6.607-9.998-2.785-16.221l0,0
		c1.221-6.392,8.631-10.378,6.954-17.896c-5.271-2.819-5.068-8.249-5.391-12.89c-0.59-8.472-2.305-17.078-2.321-25.227
		c-0.026-12.582-5.841-19.558-15.313-25.187c2.155-4.618,6.621-6.171,9.525-9.333c1.879-2.045,3.87-5.326,0.886-6.941
		C794.247,240.282,788.693,231.12,777.74,228.26z M798.095,276.066c1.051,0.08,1.971,1.869,2.605,2.522
		c0.225,2.321-0.377,3.725-2.07,4.081c-1.73,0.363-2.966-0.647-3.224-2.383C795.091,278.167,795.234,275.849,798.095,276.066z"/>
	<path fill="#555318" d="M775.094,716.122c7.292,6.556,15.079,12.561,22.337,19.152c2.653,2.409,4.385,5.834,5.481,9.977
		c-36.42-22.2-69.079-49.491-104.31-73.068c-7.363-4.387-15.882-6.776-22.258-12.869l0,0l0,0
		c-8.778-6.923-18.45-12.099-29.288-14.999c-1.263-0.885-2.526-1.77-3.789-2.655c-3.081-9.573-8.804-15.647-18.237-20.757
		c-17.065-9.247-31.641-22.769-49.356-31.326c-15.96-7.709-31.458-16.425-48.59-21.469c0,0,0,0,0,0
		c-1.232-2.326-4.142-4.278-3.021-7.161c0.957-2.46,3.602-1.713,5.721-1.162c3.098,0.807,6.189,1.635,11.389,3.01
		c-2.423-5.932-5.969-7.534-9.815-8.828c0,0,0-0.001-0.001-0.001c-0.262-3.821-4.326-6.411-3.307-11.395
		c5.57-0.96,11.644,1.103,17.304-0.984c19.186-7.071,37.999-2.004,55.434,4.737c16.362,6.325,31.276,16.499,47.559,23.569
		c2.351,1.021,4.918,3.169,5.892,5.438c3.041,7.077,7.577,10.332,15.391,8.426c3.321-0.81,6.63-0.166,9.087,2.394
		c11.121,11.586,26.634,16.541,39.121,26.046c0.003,0.003,0.006,0.007,0.009,0.011c0.705,2.013,1.519,3.941,3.27,5.137
		c4.64,11.211,8.869,22.609,12.839,34.053c7.164,20.653,17.69,38.105,33.661,52.509C765.05,710.948,771.479,712.873,775.094,716.122
		z"/>
	<path fill="#5D8E4A" d="M742.651,500.95c-0.391,0.046-0.774,0.136-1.161,0.202c11.054,39.793,28.282,76.662,50.316,110.991
		c-0.052-1.832-0.366-3.934,2.301-4.047c3.594-0.153,5.735,5.296,10.149,3.036c1.715-3.51,2.658-7.143,2.275-11.048
		c-0.366-3.724,1.218-6.152,4.668-7.621c12.573-5.354,22.105-14.736,31.959-23.81c5.381-4.955,14.805-8.213,19.201-4.636
		c10.656,8.667,10.726-0.462,13.677-5.867c1.032-16.015,2.065-32.03,3.206-49.718c6.322,4.393,9.578,8.965,10.833,15.043
		c0.654,3.168,1.242,6.338,4.526,7.941c0.071-0.011,0.15-0.031,0.222-0.044c0.49-11.554-3.097-22.729-3.078-34.351
		c0.008-4.791-0.503-14.667-11.225-9.779l0,0l0,0c-1.437,1.483-2.875,2.965-5.901,6.085c-0.769-8.858-2.949-15.8-2.662-23.444
		c0.411-10.929,4.249-23.523-13.381-26.274c-4.198-0.655-6.874-8.368-13.493-7.078c-3.244,0.57-6.487,1.139-9.731,1.707l0,0l0,0l0,0
		l0,0l-0.002,0c0.342,1.037,0.473,2.215,1.058,3.089c4.422,6.608,5.944,14.071,6.075,21.79c0.132,7.767-8.383,7.721-11.847,12.319
		c-0.986,1.31-2.364,2.481-2.894,3.955c-5.526,15.379-19.718,20.899-32.284,27.946c-8.493,4.762-17.675,8.995-27.384,1.924
		c-2.832-2.062-6.31-1.071-9.541-1.338C752.521,507.427,746.511,506.522,742.651,500.95z M801.252,583.041
		c0.557,2.264-1.625,3.978-3.708,4.7c-2.823,0.98-5.317,0.415-6.471-2.694c-0.288-2.411-0.012-4.548,2.52-5.359
		C797.054,578.581,800.292,579.139,801.252,583.041z"/>
	<path fill="#89B07B" d="M1022.719,301.606c-0.202-1.165-0.405-2.331-0.607-3.496c-4.051-13.524-8.655-26.917-13.765-40.185
		c0.045,1.188,0.09,2.375,0.135,3.563c-7.803,19.18,1.763,36.004,7.888,52.883c-2.169,1.625-3.697,1.399-4.897,0.139
		c-4.126-4.337-8.697-7.69-13.87-2.101c-4.285,4.63-3.667,8.974,0.964,14.168c3.322,3.726,5.67,11.107,0.947,14.933
		c-6.131,4.967-10.678-2.132-15.477-5.193c-0.883-0.563-1.488-1.583-2.179-2.426c-11.221-13.676-20.979-15.182-33.285-2.836
		c-13.483,13.528-24.218,28.85-16.53,49.937c0.855,2.346-0.404,5.383-0.223,8.07c1.186,17.598-7.654,32.43-13.129,48.191
		c4.007,6.357,9.333,12.266,5.966,20.818c-4.61,11.711-7.889,23.355-0.772,35.568c1.349,2.315-0.271,6.359-0.521,9.606
		c5.943,0.447,13.44-6.384,17.328,3.698c1.083-0.186,2.165-0.373,3.248-0.559c0.025-2.714,1.205-6.859-0.106-7.916
		c-10.361-8.355-4.591-17.934-2.97-27.195c-0.023-0.001-0.044-0.006-0.067-0.006c0.029-0.026,0.053-0.042,0.081-0.067
		c0.061-0.352,0.117-0.704,0.165-1.055l-1.482-0.512l0.504-0.714l0.979,1.226c4.408-1.552,10.056,3.862,13.555-2.075
		c3.666-6.22-3.605-6.741-5.763-9.857c-4.227-6.105-2.011-13.794,5.033-12.572c13.931,2.416,21.683-6.234,29.823-13.385
		c14.097-12.383,26.065-27.31,26.845-46.913c0.372-9.364,2.795-17.733,4.784-26.498
		C1019.594,340.012,1027.513,321.62,1022.719,301.606z M1003.787,317.866c0.387,0.499-0.094,1.671-0.192,2.544
		c-0.88-0.298-1.903-0.408-2.606-0.94c-1.013-0.767-0.817-1.722,0.257-2.429C1002.127,317.288,1003.336,317.284,1003.787,317.866z"
		/>
	<path fill="#325626" d="M563.008,711.325c6.044-8.239,5.309-10.78-3.262-16.519c-4.099-2.744-8.407-5.026-9.334-10.477
		c6.334,1.547,10.929,6.465,17.785,7.799c8.339,1.62,11.827,10.365,15.517,17.214c0.992,1.841-0.053,4.743,3.408,5.285
		c1.608,0.252,3.25,0.488,4.779,1.014c7.068,2.434,14.11,10.121,20.838,6.723c5.447-2.75,10.137-8.464,16.059-11.953
		c4.857-2.861,7.698-7.669,7.216-13.781c-0.217-2.753-0.598-6.871,1.718-7.558c13.423-3.974,16.182-18.014,25.217-26.14
		c4.583-4.122,8.841-2.913,13.396-3.617l0,0c6.376,6.093,14.895,8.482,22.258,12.869c-2.313,9.342,1.081,19.109-3.352,28.586
		c-3.354,7.169,3.521,10.494,9.005,12.906c5.329,2.344,10.936,3.077,14.147,9.548c3.381,6.815,4.706,11.238-2.712,16.344
		c-7.966,5.484-1.154,5.675,2.981,6.339c-8.35,3.456-16.722,6.864-24.954,10.582c-3.287,1.485-6.597,2.848-9.925,4.118
		c-1.119-6.921,0.604-13.526,2.415-20.122c2.695-9.818-0.154-14.169-9.203-11.824c-7.112,1.845-11.433,1.738-13.799-5.927
		c-0.959-3.106-4.185-3.849-6.786-2.937c-7.797,2.736-16.042,2.318-23.95,3.96c-10.493,2.178-13.255,8.573-7.899,18.539
		c3.235,6.019,2,11.933-1.018,16.674c-2.526,3.97-5.987,8.49-13.354,5.018c-6.547-3.083-10.59,1.196-11.118,8.133
		c-18.078-0.496-36.04-1.889-53.909-4.032c5.359-14.193,4.762-29.98,12.005-43.795C559.325,720.2,559.984,715.447,563.008,711.325z"
		/>
	<path fill="#91B47E" d="M1018.306,571.162c-5.192-7.887-14.01-12.117-18.657-21.268c-4.202-8.275-15.312-10.55-23.483-15.273
		c-7.099-4.102-14.001-7.926-17.261-16.336c-2.526-6.516-8.766-9.435-14.965-11.9c0.025-2.714,1.205-6.859-0.106-7.916
		c-10.361-8.355-4.591-17.934-2.97-27.195c0.004-0.024,0.009-0.049,0.013-0.073c0.061-0.352,0.117-0.704,0.165-1.055
		c4.408-1.552,10.056,3.862,13.555-2.075c3.666-6.22-3.605-6.741-5.763-9.857c-4.227-6.105-2.011-13.794,5.033-12.572
		c13.931,2.416,21.683-6.234,29.823-13.385c14.097-12.383,26.065-27.31,26.845-46.913c0.372-9.364,2.795-17.733,4.784-26.498
		c4.274-18.833,12.193-37.226,7.399-57.24c0.15,0.023,0.302,0.028,0.452,0.049c3.701,12.682,6.9,25.482,9.555,38.404
		c2.037,12.583,4.074,25.165,6.11,37.746c0.488,4.146,0.909,8.306,1.277,12.478c-3.495,4.219-3.833,4.223-7.589,1.173
		c-2.378-1.93-4.862-3.199-7.185-1.089c-3.192,2.9-5.753,6.488-8.646,9.726c-3.965,4.438,1.21,6.633,2.339,9.823
		c0.531,1.502,1.889,3.737,1.339,4.443c-7.023,8.997-8.217,21.984-20.562,27.496c-12.749,5.692-13.947,8.929-11.765,22.543
		c0.445,2.773,0.365,5.232,0.034,7.921c-1.458,11.839,2.505,19.231,13.32,18.504c11.531-0.775,17.978,4.175,24.443,11.778
		c2.659,3.126,6.024,5.652,9.118,8.41c-3.485,21.637-8.42,42.674-15.015,63.004c-0.148,0.07-0.299,0.133-0.446,0.205
		C1019.109,573.194,1018.895,572.056,1018.306,571.162z"/>
	<path fill="#3D632E" d="M446.508,682.171c4.432-1.149,8.203-0.277,11.974,2.612c2.968,2.274,6.302,0.977,8.3-2.054
		c1.958-2.97-0.448-4.832-2.407-6.672c-1.562-1.468-2.822-3.948-4.604-4.38c-13.38-3.248-24.825-11.143-37.762-15.38
		c-0.678-1.194-1.575-1.549-2.522-0.84c-0.285,0.213-0.42,0.624-0.569,1.017c-0.119,0.139-0.181,0.268-0.162,0.383
		c-1.078,0.19-2.156,0.375-3.235,0.557c-1.847-2.343-4.349-2.495-7.016-2.1l-0.031-0.027c-1.257-0.885-2.515-1.772-3.772-2.658
		c1.257,0.886,2.514,1.773,3.772,2.658c-1.301-0.824-2.555-1.714-3.772-2.658l-0.031-0.027c-1.302-0.824-2.556-1.716-3.776-2.657
		c1.259,0.886,2.518,1.772,3.777,2.657c-1.259-0.885-2.518-1.771-3.777-2.657l-0.03-0.028c-1.302-0.829-2.557-1.724-3.787-2.655
		l-0.017,0.003c-1.059-4.383,0.317-7.944,2.386-11.988c2.84-5.555,1.692-10.571-6.254-10.725c-0.558-3.244-1.117-6.488-1.675-9.731
		l0,0c5.029-2.995,2.742-6.696,2.048-11.144c-1.695-10.865,2.471-13.364,12.463-9.167c10.836,4.551,21.48,8.753,29.503,18.328
		c8.54,10.194,21.986,6.056,33.074,8.99c5.366-8.016,10.14-1.751,15.052,0.643c4.765,2.322,10.537,2.184,14.65,5.713
		c0.104,2.208-0.951,3.724-2.634,3.675c-4.092-0.119-8.518,0.005-8.457,5.088c0.076,6.321,5.624,3.094,8.836,3.755
		c7.952,1.639,16.331,1.574,23.551,6.049c3.563,2.208,7.334,1.539,11.113,0.858c0.835,3.646-0.748,6.926-1.566,10.322
		c-7.178,5.766-17.187,4.697-24.621,10.526c-3.08,2.415-8.287,2.01-11.005-3.276c-4.547-8.842-11.124-5.683-18.205-3.246
		c-4.711,1.62-6.645,4.329-5.45,8.224c1.062,3.462,4.9,3.896,8.351,2.803c1.981-0.628,3.883-1.503,8.848-3.459
		c-5.097,9.089,0.436,15.236,0.807,24.479c-11.148-7.911-18.509,0.051-26.626,4.101c-12.319,6.146-2.427,16.426-4.61,27.043
		c5.307-4.009,10.254-3.693,15.19-3.437c1.724,0.089,4.107,1.082,3.35,2.61c-7.051,14.24,8.705,10.999,12.826,14.296
		c10.302,8.242,11.522,6.713,6.568,19.174c-0.286,0.719-0.542,1.449-0.804,2.178c-2.415-0.471-4.828-0.955-7.24-1.448
		c3.19-3.45,2.929-6.514-1.322-9.132c-0.039-0.031-0.079-0.057-0.119-0.073c-0.121-0.073-0.231-0.147-0.359-0.22l-0.978-1.226
		l-0.504,0.714l1.482,0.512c-0.016,0.09-0.031,0.18-0.046,0.269c-0.13,0.076-0.265,0.199-0.408,0.384
		c0.103,0.047,0.211,0.088,0.321,0.129c-0.454,2.656-0.907,5.31-1.36,7.965c-2.061-0.43-4.121-0.871-6.181-1.316
		c0.187-0.163,0.329-0.304,0.301-0.362c-0.381-0.782-0.766-0.688-1.049,0.198c-5.142-1.118-10.281-2.269-15.414-3.479
		c-8.361-1.971-16.517-4.316-24.477-7.023c-0.957-0.742-2.046-1.089-3.231-1.155c-2.236-0.793-4.461-1.609-6.666-2.46
		c3.196-21.166,12.571-40.284,19.991-60.049C446.509,682.172,446.508,682.171,446.508,682.171z"/>
	<path fill="#385F2C" d="M488.006,738.592c-4.121-3.297-19.877-0.057-12.826-14.296c0.757-1.528-1.626-2.521-3.35-2.61
		c-4.936-0.256-9.883-0.572-15.19,3.437c2.183-10.618-7.708-20.897,4.61-27.043c8.117-4.05,15.478-12.012,26.626-4.101
		c-0.372-9.243-5.905-15.39-0.807-24.479c-4.965,1.956-6.867,2.831-8.848,3.459c-3.451,1.093-7.289,0.659-8.351-2.803
		c-1.195-3.896,0.739-6.604,5.45-8.224c7.081-2.437,13.659-5.596,18.205,3.246c2.718,5.286,7.925,5.691,11.005,3.276
		c7.434-5.829,17.443-4.76,24.621-10.526c-0.013,2.673,1.083,6.268-0.236,7.855c-4.995,6.01-0.124,8.115,3.202,11.734
		c4.716,5.132,8.974,5.337,13.918,0.884c2.867,0.936,3.836,3.273,4.376,5.927c0.928,5.451,5.235,7.732,9.334,10.477
		c8.571,5.739,9.306,8.281,3.262,16.519c-3.023,4.122-3.683,8.875-5.831,12.971c-7.243,13.814-6.646,29.602-12.005,43.795
		c-17.211-2.064-34.338-4.819-51.402-8.148c0.262-0.728,0.518-1.459,0.804-2.178C499.528,745.305,498.308,746.833,488.006,738.592z"
		/>
	<path fill="#706E2B" d="M702.044,578.609c-17.084,8.378-29.865-1.627-42.797-10.277c-3.062-2.048-4.533-6.832-8.544-7.26
		c-17.259-1.844-29.763-11.58-41.801-23.028c-3.523-3.35-9.096-5.789-15.148-5.024c-3.082,0.389-7.43,0.161-9.414-1.699
		c-11.136-10.44-24.547-4.705-36.929-5.985c-1.076-0.111-2.568-0.46-3.204,0.081c-9.556,8.118-21.132,11.132-37.324,10.433
		c9.676,9.766,16.46,14.76,24.475,18.12c0-0.001,0-0.001,0-0.002c0,0,0.001,0.001,0.001,0.001c3.846,1.294,7.392,2.895,9.815,8.828
		c-5.2-1.375-8.291-2.203-11.389-3.01c-2.118-0.55-4.764-1.298-5.721,1.162c-1.121,2.883,1.79,4.835,3.021,7.161c0,0,0,0,0,0
		c0,0,0,0-0.001,0c8.174,7.726,17.637,13.292,27.18,19.267c21.95,13.743,42.993,29.149,64.557,43.667
		c7.238,4.873,6.794,6.61,0.174,11.309c-9.725,6.904-21.145,6.666-29.234,0.678c-16.382-12.126-33.021-11.78-50.951-6.769
		c0,0,0,0,0,0l0,0c0,0-0.054-0.056-0.054-0.056l0,0l0,0c5.222-9.555,18.228-11.156,22.267-22.429
		c1.513-4.221,8.216-0.693,13.973-4.314c-15.225-9.608-26.872-22.802-45.123-25.166l0,0l0,0
		c-14.868-14.425-33.794-21.268-52.704-28.086c-8.009-2.888-16.789-4.641-19.146-15.712c15.424-0.137,30.194-2.222,45.273,0.918
		c-5.355-7.641-12.448-12.215-20.14-16.025c7.535-4.17,14.982-7.495,21.673-14.09c7.66-7.551,19.952-10.556,31.648-4.926
		c5.501,3.777,10.115,9.222,18.316,4.328c3.028-1.808,8.298,0.144,12.545,0.38c7.619,2.771,15.094,6.101,22.908,8.117
		c5.317,1.371,10.51,1.807,13.987,6.922c2.327,3.422,6.188,4.101,10.214,3.634c2.797-0.324,5.973-0.123,7.556,2.106
		c15.305,21.564,36.21,21.225,58.646,15.445c0.677-0.174,1.459,0.06,2.237,0.279c6.977,9.66,13.475,19.849,19.469,30.589
		C702.251,578.321,702.145,578.463,702.044,578.609L702.044,578.609z"/>
	<path fill="#3E753F" d="M383.607,716.827c-9.266-5.767-16.949-12.329-19.82-24.233c-2.171-9,2.467-15.973,5.004-22.413
		c6.41-16.271,4.711-33.144,6.081-49.523c0.674-8.06,4.068-15.54,3.543-23.59c3.93-2.936,7.86-5.871,11.79-8.807l0,0c0,0,0,0,0,0
		l0.12,0.066c-1.481,8.915-0.882,17.737,1.195,26.492c0,0,0,0,0,0l0,0c0.558,3.244,1.117,6.488,1.675,9.731
		c-3.629-0.631-7.749-3.589-10.78-0.109c-3.368,3.867,1.33,6.995,2.717,10.173c2.389,5.474,5.378,10.88,11.93,12.649l0.017-0.003
		c1.23,0.932,2.485,1.827,3.787,2.655l0.03,0.028c1.22,0.941,2.474,1.833,3.776,2.657l0.031,0.027
		c1.217,0.944,2.471,1.834,3.772,2.658l0.031,0.027c1.834,2.387,4.342,2.522,7.016,2.1c1.079-0.182,2.157-0.367,3.235-0.557
		c-0.02-0.116,0.042-0.245,0.162-0.383c-0.051,0.133-0.102,0.263-0.162,0.383c1.084-0.187,2.168-0.373,3.253-0.56
		c12.937,4.238,24.382,12.132,37.762,15.38c1.782,0.432,3.042,2.913,4.604,4.38c1.959,1.84,4.365,3.702,2.407,6.672
		c-1.998,3.031-5.332,4.328-8.3,2.054c-3.771-2.889-7.542-3.762-11.974-2.612c-0.01-0.002-0.017-0.003-0.026-0.005
		c-0.326-0.413-0.818-1.213-0.943-1.159c-1.03,0.442-0.684,0.896,0.943,1.159c0.002,0.002,0.005,0.006,0.006,0.009l0.021-0.004
		c-7.421,19.765-16.795,38.884-19.991,60.049c-11.265-4.35-22.121-9.459-32.595-15.282
		C392.616,721.602,387.943,719.526,383.607,716.827z"/>
	<path fill="#355022" d="M847.961,801.011c-4.608,3.583-5.81,9.277-9.406,13.342c-15.267-23.267-34.848-43.403-56.764-61.612
		c-4.179-3.472-9.047-6.213-13.859-8.805c-10.886-5.865-22.111-8.018-33.796-4.322c-3.415,0.362-6.855,0.66-9.26,3.694
		c-2.067,0.869-4.131,1.742-6.203,2.601c-4.135-0.665-10.947-0.856-2.981-6.339c7.418-5.106,6.093-9.529,2.712-16.344
		c-3.211-6.471-8.818-7.204-14.147-9.548c-5.483-2.412-12.358-5.738-9.005-12.906c4.433-9.478,1.038-19.244,3.352-28.586
		c35.231,23.577,67.889,50.868,104.31,73.068c-1.096-4.144-2.828-7.568-5.481-9.977c-7.258-6.591-15.045-12.597-22.337-19.152
		c-3.615-3.249-10.044-5.174-7.477-12.215c2.97,2.679,6.108,5.265,9.471,7.733c29.056,21.328,55.293,45.52,74.862,75.496
		C853.052,792.438,852.37,797.583,847.961,801.011z"/>
	<path fill="#8EAD74" d="M1002.896,616.349c-4.013-5.886-11.235-6.119-16.748-9.395c-7.16-4.255-14.817-7.523-12.697-18.284
		c0.688-3.493-2.729-7.614-4.918-7.537c-14.533,0.516-22.672-11.767-34.542-16.323c-8.358-4.03-14.638-8.961-11.214-19.924
		c1.842-5.893-2.055-11.391-3.133-16.874c3.272-5.307,8.247-1.242,12.085-2.888c6.343-2.719-5.651-7.357,1.238-9.681
		c4.165-1.405,8.569-2.556,7.726-8.499c1.083-0.186,2.165-0.373,3.248-0.559c6.199,2.465,12.438,5.384,14.965,11.9
		c3.261,8.411,10.162,12.234,17.261,16.336c8.171,4.722,19.281,6.997,23.483,15.273c4.647,9.151,13.465,13.38,18.657,21.268
		c0.588,0.893,0.803,2.032,1.191,3.057c0.036,0.228,0.104,0.445,0.159,0.667c-4.622,14.131-10.037,27.924-16.373,41.32
		C1003.153,616.25,1003.028,616.306,1002.896,616.349L1002.896,616.349z"/>
	<path fill="#50591F" d="M873.989,669.007c0.515-0.708,0.578-2.427,0.077-3.091c-7.944-10.522-2.286-18.195,5.098-25.652
		c2.433-2.457,1.485-4.585-0.893-6.778c-0.517-0.476-0.654-1.09-0.593-1.684c0.507-0.722,1.034-1.403,1.583-2.032
		c0.045,0.002,0.094-0.019,0.137-0.007c8.849,2.397,16.212-6.862,25.107-3.004c0,0,0,0,0,0c1.453,7.583,0.575,15.404-1.103,22.495
		c-3.632,15.348-3.094,30.564-1.688,45.91c0.593,6.474-8.467,11.961-1.73,18.899c-6.665,10.183,1.283,17.852,4.397,26.351
		c-2.961,4.353-5.122,9.269-6.096,14.961c-1.721,10.057-3.054,20.141-3.824,30.237c-0.296,0.225-0.599,0.445-0.871,0.696
		c-11.857,10.91-14.251,11.097-18.923-2.194c-0.013-7.58-0.115-15.005-0.445-22.412c-0.851-19.118-4.18-37.334-11.763-53.905
		c2.339,0.931,4.762,1.896,8.434,3.358C865.049,696.006,864.547,681.995,873.989,669.007z"/>
	<path fill="#50591F" d="M904.506,626.759c0.001-0.001,0.039-0.038,0.039-0.038c0.009-0.002,0.018-0.003,0.027-0.005
		C904.55,626.73,904.528,626.745,904.506,626.759z"/>
	<path fill="#4C8548" d="M729.547,440.031c0.381,0.022,0.701,0.05,0.98,0.077c0.9,0.087,1.333,0.168,1.704,0.057
		c4.805-1.449,10.978-11.076,13.042,2.879c0.519,3.509,6.315,3.298,7.687-0.215c3.559-9.119,10.701-12.244,19.091-12.319
		c0.929-6.348-7.133-5.282-6.746-10.33c23.3-5.377,23.299-5.378,40.87-26.298c0.342-0.408,0.874-0.656,1.317-0.979
		c0,0,0.046,0.025,0.046,0.025c0,0,0,0,0,0c5.159,6.076,4.823,11.556,1.809,19.352c-2.567,6.641-3.579,11.555-11.543,12.889
		c-4.722,0.791-8.009,4.958-4.643,9.777c3.481,4.982,2.192,10.585,3.161,15.716c2.26,11.954,1.732,23.866-10.32,31.801
		c-3.094,2.037-5.428,5.35-7.814,8.316c-5.154,6.409-11.264,9.964-19.779,7.773c-5.555-1.429-10.693,0.371-15.759,2.4l0,0
		c-0.391,0.046-0.774,0.136-1.161,0.202c-0.48-1.728-0.99-3.443-1.447-5.182c-5.815-22.155-10.229-44.562-13.062-67.193
		c0.747,3.277,1.485,6.513,2.208,9.683C729.308,438.982,729.429,439.513,729.547,440.031z"/>
	<path fill="#95B986" d="M1001.397,490.822c-10.815,0.727-14.778-6.666-13.32-18.504c0.331-2.689,0.411-5.147-0.034-7.921
		c-2.182-13.613-0.984-16.85,11.765-22.543c12.345-5.512,13.539-18.499,20.562-27.496c0.55-0.705-0.808-2.941-1.339-4.443
		c-1.129-3.19-6.304-5.385-2.339-9.823c2.893-3.238,5.454-6.826,8.646-9.726c2.322-2.11,4.807-0.841,7.185,1.089
		c3.757,3.05,4.094,3.046,7.589-1.173c1.428,16.22,1.947,32.635,1.434,49.262c-0.753,24.401-2.853,48.272-6.589,71.466
		c-3.094-2.758-6.458-5.284-9.118-8.41C1019.375,494.997,1012.928,490.048,1001.397,490.822z"/>
	<path fill="#7A512C" d="M878.746,912.076c5.306-1.233,10.968-3.144,16.109-2.361c7.357,1.121,8.131,9.021,11.17,14.474
		c0.921,12.838,1.575,25.698,1.876,38.589c0.636,27.319,0.926,54.718-0.434,81.992c-0.061,1.233-0.184,2.447-0.281,3.669
		c-1.183-5.498-4.178-9.962-9.815-11.412c-9.384-2.414-9.756-8.41-8.65-16.161c0.764-5.351,0.786-10.864,0.591-16.283
		c-0.313-8.669-3.36-15.776-12.25-18.843c0.126-21.789-0.709-43.619-2.996-65.515C874.985,917.06,874.486,913.066,878.746,912.076z"
		/>
	<path fill="#764C29" d="M889.311,1004.583c0.196,5.42,0.173,10.932-0.591,16.283c-1.106,7.751-0.734,13.747,8.65,16.161
		c5.638,1.45,8.632,5.914,9.815,11.412c-2.75,34.942-19.367,65.635-33.721,96.867c-0.924,2.012-3.677,3.183-5.516,4.694
		c-1.176-1.26-1.841-1.647-1.833-2.017c0.061-2.714,0.182-5.433,0.422-8.138c3.346-37.642,7.281-75.244,9.264-112.925
		c0.268-0.941,0.289-1.917,0.151-2.916c0.164-3.299,0.312-6.599,0.444-9.899c0.709-1.537,0.615-3.156,0.183-4.81
		c0.139-3.982,0.246-7.965,0.328-11.95c0.72-1.609,0.571-3.29,0.088-5.001c0.032-2.201,0.055-4.402,0.067-6.604
		C885.951,988.806,888.998,995.913,889.311,1004.583z"/>
	<path fill="#6D9D63" d="M934.063,164.631c-2.575,1.021-1.663,6.194-0.127,9.062c4.5,8.401,3.346,17.542,4.055,26.449
		c-8.657,15.156-18.008,29.969-25.703,45.598c-4.486,9.11,1.407,20.354-3.868,30.147c-1.56,2.897,2.196,5.765,4.639,7.966
		c7.135,6.425,9.118,14.028,7.221,23.597c-2.359,11.901-0.272,23.856,2.238,35.629c0.362,2.153,0.723,4.307,1.085,6.46
		c-1.08,0.192-2.161,0.378-3.243,0.558c-0.092-12.61-7.707-23.821-6.836-36.635c0.064-0.929-0.708-2.029-1.328-2.876
		c-11.302-15.402-17.846-31.686-11.394-44.062c6.061-11.624,4.133-22.909,5.979-34.292c1.994-2.171,2.405-4.74,1.997-7.566
		c-1.292-8.952-5.254-18.345,4.103-25.594c-2.914-7.423,6.05-13.544,1.915-21.558c-2.651-5.138,0.341-10.827,3.29-15.337
		c3.662-5.6,5.713-11.663,7.559-17.945c1.28-4.358,2.26-8.492-1.618-12.071c-2.032-1.875-3.18-3.694-2.851-6.95
		c1.357-13.453-1.388-23.401-8.658-34.227c-0.297-1.689-0.594-3.38-0.891-5.068c10.942,14.651,21.417,29.604,31.363,44.905
		c0.469,5.504-3.877,10.562-3.051,15.033C941.426,153.92,944.611,160.445,934.063,164.631z"/>
	<path fill="#A9A461" d="M434.945,440.353c1.265,0.895,2.529,1.791,3.794,2.687C437.331,442.347,436.178,441.294,434.945,440.353z"
		/>
	<path fill="#A9A461" d="M517.095,437.664c3.139,11.331,1.22,13.407-9.753,12.217c-3.74-0.406-7.916,0.558-11.205-0.786
		c-6.031-2.465-10.936-2.991-16.238,1.738c-4.339,3.87-10.515,3.461-12.208-1.991c-3.617-11.646-11.339-9.061-19.336-7.471
		c-3.187,0.634-6.405,1.116-9.608,1.667l-0.008,0.001c-1.265-0.896-2.529-1.792-3.794-2.687
		c-14.095-1.296-26.006-9.363-39.496-12.79c-7.696-1.954-14.983-5.807-23.079-6.659c-4.461-0.469-7.204-2.726-8.579-6.605
		c52.873-3.171,105.062,1.983,155.515,18.32C517.328,433.349,516.187,434.388,517.095,437.664z"/>
	<path fill="#6A582A" d="M893.589,786.31c0.273-0.251,0.575-0.471,0.871-0.696c-1.11,14.548-1.026,29.12,0.821,43.67
		c-3.196,4.196-1.049,8.847-0.367,13.261c1.588,10.266-1.549,18.241-10.517,23.78c-6.008,3.713-10.842,9.504-18.164,10.876
		c-2.006-7.496-4.33-14.89-7.015-22.168c-5.394-14.62-12.408-28.1-20.663-40.68c3.596-4.065,4.799-9.759,9.406-13.342
		c4.409-3.428,5.091-8.573,3.989-13.875c5.621,8.611,10.721,17.673,15.143,27.313c0.696,1.517,3.193,2.208,7.456,4.974
		c-0.041-12.465,0.138-24.062,0.118-35.307C879.338,797.406,881.732,797.219,893.589,786.31z"/>
	<path fill="#315E2B" d="M610.199,763.99c7.368,3.471,10.828-1.048,13.354-5.018c3.018-4.741,4.254-10.655,1.018-16.674
		c-5.356-9.966-2.594-16.361,7.899-18.539c7.908-1.642,16.153-1.224,23.95-3.96c2.601-0.912,5.827-0.169,6.786,2.937
		c2.366,7.666,6.687,7.772,13.799,5.927c9.049-2.345,11.898,2.005,9.203,11.824c-1.811,6.596-3.534,13.201-2.415,20.122
		c-19.778,7.544-40.293,11.332-61.766,11.67c-7.672,0.121-15.318,0.054-22.946-0.155
		C599.609,765.187,603.652,760.907,610.199,763.99z"/>
	<path fill="#8AAB6F" d="M998.93,263.131c-1.301-2.314-2.582-4.393-2.359-7.452c0.927-12.693-1.233-15.934-13.188-19.597
		c-3.061-0.938-6.117-0.786-8.076-4.183c-11.133-19.302-16.416-21.883-36.719-18.5c-0.535,0.089-1.069,0.184-1.604,0.276
		l-0.008,0.001c-0.186-1.081-0.372-2.163-0.558-3.244c0.791-3.389,2.406-6.653,1.573-10.29c5.203-3.352,5.899-8.971,6.959-14.296
		c0.416-2.092-0.789-4.697,0.022-6.49c6.272-13.87,3.269-28.058,2.111-42.187c12.819,20.154,24.698,40.927,35.44,62.461
		c9.566,19.177,18.24,38.601,25.824,58.295c0.045,1.188,0.09,2.375,0.135,3.563C1005.298,262.035,1002.114,262.583,998.93,263.131z"
		/>
	<path fill="#496129" d="M899.983,714.064c-6.737-6.938,2.323-12.425,1.73-18.899c-1.405-15.346-1.944-30.562,1.688-45.91
		c1.678-7.091,2.557-14.912,1.103-22.495c0,0,0,0,0,0l0,0l0.001-0.001c0.022-0.014,0.044-0.029,0.066-0.043
		c1.063-0.183,2.126-0.366,3.189-0.549c7.551,10.423,13.199,21.332,9.143,34.822c-1.234,4.106,0.896,6.638,3.42,9.937
		c8.332,10.891,17.3,21.735,17.765,36.549l0.001,0.004c-0.268,0.517-0.534,1.035-0.802,1.551
		c-7.144,7.025-14.701,13.867-22.74,20.492c-3.916,3.227-7.393,6.814-10.169,10.895
		C901.267,731.916,893.319,724.248,899.983,714.064z"/>
	<path fill="#7E7C33" d="M541.289,495.527c-1.272-0.882-2.544-1.765-3.817-2.646C538.793,493.693,540.047,494.6,541.289,495.527z"/>
	<path fill="#7E7C33" d="M622.001,531.862c-1.583-2.229-4.759-2.43-7.556-2.106c-4.026,0.467-7.887-0.211-10.214-3.634
		c-3.477-5.114-8.671-5.55-13.987-6.922c-7.814-2.016-15.289-5.347-22.908-8.117c-9.175-8.857-20.53-3.425-30.861-4.708
		c-1.256-6.872-7.305-5.901-11.696-6.378c-6.589-0.716-11.161-3.6-14.362-9.143c2.175-0.396,4.349-0.792,6.524-1.188
		c3.416,0.536,6.831,1.072,10.247,1.609c2.973,3.423,6.689,2.09,10.272,1.605l0.006-0.001c0.002,0.001,0.004,0.003,0.005,0.003
		c1.272,0.881,2.545,1.764,3.817,2.646c2.986,3.42,6.696,2.088,10.282,1.57l0,0c12.75,4.449,23.433,18.266,39.284,8.674
		c12.191,4.885,27.393-0.834,37.745,11.017c2.363,2.705,6.957,3.414,9.465,6.05c8.51,8.947,17.008,8.747,26.015,1.297
		c6.613,7.436,12.885,15.252,18.806,23.45c-0.778-0.219-1.56-0.453-2.237-0.279C658.211,553.087,637.306,553.426,622.001,531.862z"
		/>
	<path fill="#A49D58" d="M556.827,469.474L556.827,469.474c-9.177-0.584-18.052-1.924-26.697-5.702
		c-10.674-4.664-22.047-3.74-33.252-1.477c-5.815,1.175-11.601,2.501-17.399,3.759c-4.245-5.373-9.316-7.597-16.606-7.436
		c-9.549,0.212-19.238-1.48-23.589-12.269l0,0c-0.179-1.104-0.358-2.208-0.537-3.312c3.203-0.551,6.421-1.033,9.608-1.667
		c7.997-1.59,15.719-4.175,19.336,7.471c1.693,5.451,7.869,5.86,12.208,1.991c5.301-4.728,10.207-4.203,16.238-1.738
		c3.29,1.343,7.465,0.38,11.205,0.786c10.973,1.19,12.891-0.886,9.753-12.217c-0.908-3.277,0.233-4.315,2.211-5.045
		c4.913,1.591,9.815,3.249,14.694,5.054c12.78,4.73,25.062,10.028,36.838,15.899C569.268,461.491,568.481,470.068,556.827,469.474z"
		/>
	<path fill="#7E9C58" d="M266.773,424.751c-12.37,4.791-12.927,4.642-11.576,18.298c-0.117,0.428-0.192,0.897-0.282,1.353
		c-0.885-0.229-1.772-0.451-2.651-0.698c-19.876-5.594-21.161-4.404-17.664,16.368c0.44,2.618,0.89,5.235,1.334,7.853
		c-6.06-3.049-3.808-11.434-9.828-14.738c-8.322,6.076-18.752,5.82-28.516,8.025c-5.435,1.227-11.908,0.292-15.357,6.175
		c-2.73-3.215-5.528-6.386-8.393-9.514c0.064-3.851,1.258-7.241,4.609-9.743c5.952-4.443,7.483-10.717,7.562-17.595
		c30.51-2.989,61.012-6.113,91.53-9.019C275.239,425.942,270.262,423.4,266.773,424.751z"/>
	<path fill="#825B37" d="M894.914,842.544c-0.683-4.414-2.829-9.065,0.367-13.261c0.122,0.964,0.237,1.928,0.375,2.892
		c4.382,30.596,8.161,61.239,10.369,92.013c-3.039-5.453-3.813-13.352-11.17-14.474c-5.141-0.784-10.802,1.128-16.109,2.361
		c-4.26,0.99-3.761,4.984-4.68,8.148c-0.051-0.485-0.094-0.968-0.146-1.452c-1.524-14.197-4.071-28.057-7.687-41.571
		c7.322-1.373,12.155-7.164,18.164-10.876C893.365,860.786,896.502,852.81,894.914,842.544z"/>
	<path fill="#A29848" d="M618.635,498.915C618.635,498.915,618.636,498.915,618.635,498.915c-7.046-6.442-15.332-9.479-24.877-9.05
		l-0.026-0.023l0,0c-5.036-5.42-10.136-10.724-18.46-10.182l0,0l0,0c-4.098-7.108-13.366-4.853-18.444-10.185
		c11.653,0.594,12.441-7.983,14.01-15.902c33.625,16.766,63.074,38.259,87.974,64.797
		C643.771,515.308,632.087,505.276,618.635,498.915L618.635,498.915z"/>
	<path fill="#6C9B61" d="M892.181,60.749c6.624,8.297,13.109,16.682,19.444,25.166c0.297,1.689,0.594,3.379,0.891,5.068
		c-2.69,0.155-5.406,0.628-8.066,0.411c-11.851-0.972-11.845-1.044-16.554-11.107c-7.057-0.048-5.081,15.282-15.291,9.286
		c-8.275-4.859-0.612-9.607,1.252-15.317c-8.516,5.707-16.495,2.191-24.502,0.643c2.873-2.556,5.788-5.092,8.768-7.597
		c7.375-6.201,15.54-11.463,23.531-17.302C886.125,54.53,889.486,57.373,892.181,60.749z"/>
	<path fill="#A19C5A" d="M372.37,420.904c8.096,0.852,15.383,4.705,23.079,6.659c13.49,3.427,25.401,11.493,39.496,12.79
		c1.233,0.941,2.386,1.994,3.794,2.687l0.008-0.001c0.179,1.104,0.358,2.208,0.537,3.312c-7.687,2.12-15.678,9.301-22.607-1.441
		c-0.49-0.76-1.918-0.864-2.823-1.416c-4.473-2.727-6.209,7.361-11.055,2.38c-3.009-3.094-5.666-8.891-8.764-9.091
		c-9.086-0.586-16.947-4.587-25.453-6.525c-3.795-0.865-7.714-1.227-10.184-4.279c-4.624-5.711-10.498-8.504-16.946-10.067
		c5.387-0.422,10.774-0.847,16.162-1.236c2.06-0.148,4.116-0.253,6.174-0.377C365.166,418.178,367.909,420.435,372.37,420.904z"/>
	<path fill="#76A468" d="M944.951,185.846c-1.06,5.325-1.756,10.944-6.959,14.296c-0.709-8.907,0.445-18.048-4.055-26.449
		c-1.536-2.868-2.449-8.041,0.127-9.062c10.549-4.187,7.364-10.711,5.875-18.778c-0.825-4.471,3.52-9.53,3.051-15.033
		c1.372,2.111,2.743,4.224,4.095,6.348c1.159,14.13,4.161,28.318-2.111,42.187C944.161,181.149,945.367,183.754,944.951,185.846z"/>
	<path fill="#84A866" d="M178.45,448.13c-3.351,2.502-4.545,5.892-4.609,9.743c-1.141-1.245-2.276-2.495-3.44-3.726
		c-4.253-4.5-7.115-10.315-12.142-17.781c8.233-2.183,13.719-4.462,19.373-5.01c2.793-0.27,5.586-0.549,8.379-0.822
		C185.933,437.413,184.402,443.687,178.45,448.13z"/>
	<path fill="#FFFFFF" d="M1038.836,377.804c-2.036-12.582-4.073-25.163-6.11-37.746
		C1035.289,352.524,1037.342,365.103,1038.836,377.804z"/>
	<path fill="#7E9C58" d="M302.427,419.209c2.92-0.263,5.84-0.534,8.761-0.791C308.295,419.109,305.388,419.592,302.427,419.209z"/>
	<path fill="#FFFFFF" d="M1022.112,298.109c0.354,1.181,0.714,2.362,1.059,3.545c-0.15-0.021-0.302-0.025-0.452-0.049
		C1022.516,300.44,1022.314,299.275,1022.112,298.109z"/>
	<path fill="#325626" d="M734.135,739.614c-1.357,0.429-2.72,0.919-4.09,1.51c-1.718,0.741-3.446,1.458-5.17,2.184
		C727.281,740.273,730.72,739.976,734.135,739.614z"/>
	<path fill="#706E2B" d="M717.848,612.207c-0.003-0.003-0.006-0.007-0.009-0.011c0.004,0.003,0.009,0.006,0.013,0.009
		c0.043-0.746,0.088-1.493,0.132-2.24c1.065,2.45,2.112,4.908,3.134,7.378C719.367,616.149,718.553,614.221,717.848,612.207z"/>
	<path fill="#706E2B" d="M711.803,596.763C711.802,596.763,711.802,596.763,711.803,596.763l0.109-0.11
		c0.237,0.495,0.484,0.979,0.719,1.476c1.052,2.226,2.082,4.463,3.093,6.71C713.006,602.988,712.802,599.639,711.803,596.763z"/>
	<path fill="#706E2B" d="M707.793,588.354c1.402,2.734,2.778,5.498,4.119,8.299l-0.11,0.109
		C708.766,594.61,707.961,591.603,707.793,588.354z"/>
	<path fill="#7A512C" d="M876.907,997.344c0.035-1.667,0.063-3.334,0.088-5.001C877.477,994.054,877.627,995.736,876.907,997.344z"
		/>
	<path fill="#7A512C" d="M876.396,1014.105c0.064-1.604,0.127-3.207,0.183-4.81C877.011,1010.949,877.104,1012.568,876.396,1014.105
		z"/>
	<path fill="#5C8948" d="M813.913,643.686c-0.902-1.189-1.82-2.37-2.711-3.565C812.635,640.944,813.486,642.169,813.913,643.686z"/>
	<path fill="#7A512C" d="M875.8,1026.92c0.051-0.972,0.103-1.944,0.151-2.916C876.089,1025.003,876.068,1025.979,875.8,1026.92z"/>
	<path fill="#706E2B" d="M702.044,578.609c0.101-0.146,0.207-0.288,0.31-0.434c0.929,1.665,1.852,3.337,2.758,5.028
		C703.551,582.131,702.763,580.398,702.044,578.609z"/>
	<path fill="#3E753F" d="M436.415,745.837c-1.086-0.369-2.153-0.773-3.231-1.155C434.369,744.747,435.458,745.095,436.415,745.837z"
		/>
	<path fill="#FFFFFF" d="M1019.497,574.219c0.147-0.072,0.298-0.134,0.446-0.205c-0.095,0.291-0.192,0.581-0.287,0.871
		C1019.602,574.664,1019.533,574.447,1019.497,574.219z"/>
	<path fill="#FFFFFF" d="M1002.896,616.349L1002.896,616.349c0.132-0.042,0.257-0.098,0.387-0.143
		c-0.105,0.221-0.202,0.446-0.307,0.668C1002.95,616.699,1002.923,616.524,1002.896,616.349
		C1002.897,616.349,1002.897,616.349,1002.896,616.349z"/>
	<path fill="#4A8556" d="M780.474,197.894c1.034-0.739,4.25-0.535,4.525,0.085c5.97,13.492,17.404,1.993,25.847,5.547
		c5.343,2.248,6.453-6.702,11.245-8.821c0.636-0.069,1.272-0.108,1.908-0.128c2.805,0.799,1.461,3.911,2.45,5.737
		c3.21,5.928,6.777,9.2,13.917,3.386c6.751-5.497,8.315-4.505,10.111,3.83c1.132,5.253,2.082,9.381,7.721,12.672
		c8.486,4.954,0.65,11.38-0.636,17.163c-5.042,5.36-9.411,9.631-16.79,1.853c-4.72-4.976-9.91-2.151-11.897,4.48
		c-5.973,19.929-14.75,39.46-8.293,61.126c2.206,7.402-4.734,12.87-4.761,19.883c-5.271-2.819-5.068-8.249-5.391-12.89
		c-0.59-8.472-2.305-17.078-2.321-25.227c-0.026-12.582-5.841-19.558-15.313-25.187c2.155-4.618,6.621-6.171,9.525-9.333
		c1.879-2.045,3.87-5.326,0.886-6.941c-8.958-4.845-14.511-14.007-25.465-16.867c-9.785-2.555-20.408,0.049-29.505-5.233
		c3.854-10.649,8.174-21.072,12.975-31.268C766.653,196.545,770.888,204.742,780.474,197.894z"/>
	<path fill="#518B57" d="M811.765,378.84l0.002,0c4.648-5.472,0.618-11.175,0.447-16.776l0,0c0,0,0,0,0,0
		c-0.191-1.079-0.379-2.16-0.563-3.242l0,0c0,0,0,0,0,0c-0.929-5.407-1.857-10.814-2.785-16.221c0,0,0,0,0,0l0,0
		c1.221-6.392,8.631-10.378,6.954-17.896c0.028-7.012,6.967-12.481,4.761-19.883c-6.457-21.665,2.319-41.197,8.293-61.126
		c1.987-6.631,7.178-9.456,11.897-4.48c7.38,7.778,11.748,3.507,16.79-1.853c4.136-1.826,8.273-3.651,12.41-5.476
		c0.451,5.124,3.589,10.819-3.381,14.269c-3.779,1.872-4.035,6.256-6.087,9.374c-1.482,2.252-2.18,5.182-4.025,7
		c-4.912,4.839-13.936,1.139-17.643,6.634c-2.797,4.147,2.738,11.906-4.605,15.572c-3.858,1.926-3.996,4.633-1.832,7.925
		c4.651,7.075,1.72,14.759,1.769,22.204c-0.463,2.126-1.876,4.599-1.245,6.325c8.01,21.908,7.55,28.384-5.171,49.086
		c-3.229,5.256-3.191,13.332-11.591,14.518C814.694,382.811,813.23,380.825,811.765,378.84z"/>
	<polygon fill="#518B57" points="811.765,378.84 811.765,378.84 811.765,378.84 	"/>
	<path fill="#4C8548" d="M807.538,392.927c0,0-0.047-0.025-0.046-0.025c-0.327-5.219,0.625-10.05,4.273-14.062l0,0
		c1.465,1.985,2.929,3.971,4.393,5.956c0.171,1.073,0.337,2.146,0.498,3.219c0,0,0,0,0,0
		C813.756,389.911,811.226,392.494,807.538,392.927z"/>
	<path fill="#4A8556" d="M800.7,278.588c0.225,2.321-0.377,3.725-2.07,4.081c-1.73,0.363-2.966-0.647-3.224-2.383
		c-0.315-2.119-0.172-4.437,2.689-4.22C799.146,276.146,800.067,277.935,800.7,278.588z"/>
	<path fill="#4C8548" d="M811.767,378.839c-0.151-5.6-4.17-11.303,0.446-16.776l0,0
		C812.386,367.664,816.415,373.367,811.767,378.839z"/>
	<path fill="#4C8548" d="M811.651,358.821C811.651,358.821,811.651,358.821,811.651,358.821c-5.655-4.595-6.608-9.998-2.786-16.221
		c0,0,0,0,0,0C809.794,348.007,810.723,353.414,811.651,358.821z"/>
	<path fill="#334F22" d="M662.949,662.932c-9.035,8.126-11.794,22.166-25.217,26.14c-2.316,0.686-1.935,4.805-1.718,7.558
		c0.482,6.112-2.359,10.92-7.216,13.781c-5.922,3.49-10.612,9.203-16.059,11.953c-6.728,3.399-13.77-4.289-20.838-6.723
		c-1.529-0.526-3.171-0.762-4.779-1.014c-3.461-0.542-2.416-3.444-3.408-5.285c-3.69-6.849-7.178-15.594-15.517-17.214
		c-6.856-1.334-11.451-6.253-17.785-7.799c-0.54-2.654-1.509-4.991-4.376-5.927c3.35-8.367,7.433-15.046,18.066-8.949
		c7.726,4.429,13.202-2.625,19.751-4.239c5.322-1.741,12.055,0.179,15.653-6.034c1.085-0.187,2.169-0.373,3.253-0.559l0,0l0,0
		c1.842,2.383,4.362,2.524,7.044,2.127c1.081-0.186,2.163-0.372,3.244-0.558c4.896,1.789,8.215,0.637,9.173-4.919l0.008-0.001
		c12.405,5.707,18.772-2.271,24.83-10.953c10.838,2.899,20.51,8.076,29.288,14.999l0,0
		C671.79,660.019,667.532,658.81,662.949,662.932z"/>
	<path fill="#4A5D25" d="M624.147,648.172c-5.445,1.456-3.292,4.203-1.92,7.098l-0.008,0.001c-3.544,0.732-7.505,0.689-9.173,4.919
		c-1.081,0.186-2.163,0.372-3.244,0.558c-1.842-2.384-4.362-2.524-7.044-2.127l0,0c-1.084,0.186-2.169,0.372-3.253,0.559
		c-7.824-4.75-12.619-1.644-15.653,6.034c-6.549,1.614-12.025,8.669-19.751,4.239c-10.633-6.097-14.716,0.582-18.066,8.949
		c-4.944,4.453-9.201,4.247-13.918-0.884c-3.326-3.619-8.196-5.724-3.202-11.734c1.319-1.588,0.224-5.182,0.236-7.855
		c0.818-3.396,2.401-6.675,1.566-10.322c0.549-5.314,6.311-6.911,8.091-11.347c0,0,0,0,0,0c17.931-5.011,34.569-5.357,50.951,6.769
		c8.089,5.988,19.509,6.226,29.234-0.678c6.62-4.699,7.065-6.436-0.174-11.309c-21.564-14.518-42.607-29.923-64.557-43.667
		c-9.543-5.975-19.006-11.541-27.18-19.267c0,0,0,0,0.001,0c17.132,5.044,32.63,13.76,48.59,21.469
		c17.715,8.557,32.291,22.08,49.356,31.326c9.432,5.11,15.156,11.185,18.237,20.757C638.504,648.487,630.64,646.437,624.147,648.172
		z"/>
	<path fill="#63601F" d="M717.839,612.197c-12.487-9.504-28-14.46-39.121-26.046c-2.457-2.56-5.766-3.205-9.087-2.394
		c-7.815,1.906-12.35-1.349-15.391-8.426c-0.975-2.269-3.541-4.417-5.892-5.438c-16.284-7.069-31.197-17.243-47.559-23.569
		c-17.434-6.741-36.248-11.808-55.434-4.737c-5.659,2.087-11.734,0.024-17.304,0.984c-1.019,4.984,3.045,7.574,3.307,11.395
		c0,0.001,0,0.001,0,0.002c-8.015-3.36-14.799-8.354-24.475-18.12c16.192,0.699,27.768-2.315,37.324-10.433
		c0.637-0.541,2.129-0.192,3.204-0.081c12.382,1.28,25.793-4.455,36.929,5.985c1.984,1.86,6.331,2.089,9.414,1.699
		c6.053-0.765,11.626,1.674,15.148,5.024c12.038,11.448,24.542,21.185,41.801,23.028c4.012,0.428,5.483,5.212,8.544,7.26
		c12.932,8.65,25.713,18.655,42.797,10.277l0,0c0.719,1.789,1.507,3.522,3.068,4.594c0.909,1.699,1.796,3.425,2.682,5.151
		c0.169,3.249,0.973,6.255,4.009,8.408c0.001,0.001,0.001,0.001,0.001,0.001c0.999,2.876,1.203,6.225,3.921,8.076
		c0.766,1.703,1.515,3.413,2.259,5.127c-0.044,0.746-0.089,1.494-0.132,2.24C717.847,612.203,717.843,612.2,717.839,612.197z"/>
	<path fill="#325626" d="M622.227,655.27c-1.372-2.895-3.525-5.643,1.92-7.098c6.493-1.735,14.357,0.315,19.121-6.51
		c1.263,0.885,2.526,1.77,3.789,2.655C640.999,652.999,634.632,660.977,622.227,655.27z"/>
	<path fill="#5A9357" d="M831.026,105.944c11.253,5.349,15.625,4.392,23.361-5.833c0.863-0.119,1.722-0.189,2.575-0.209
		c3.661,4.447,6.029,11.048,14.127,8.919c2.796-0.736,8.516,13.087,7.557,17.898c-0.929,4.663-2.187,9.259-3.301,13.889
		c4.51,4.255,15.337-3.564,15.973,8.321c0.019,0.36,1.98,1.16,2.626,0.863c3.036-1.394,5.102-1.732,6.458-1.451
		c0.824,1.26,1.456,2.606,1.884,4.045c-0.408,1.499-1.388,3.09-2.648,4.19c-8.227,7.189-5.525,16.599-4.221,23.215
		c1.777,9.017,1.85,18.14,3.658,27.05c0.001,0.001,0.001,0.001,0.001,0.001c0,0-0.001-0.001-0.001-0.001
		c4.582,9.526-2.773,17.845-3.068,27.067c-0.235,7.359-3.899,14.908-5.545,22.543c-1.373,6.37-6.82,13.893-11.712,19.991
		c-3.463,4.318-4.339,7.391,0.818,10.581c7.732,4.783,7.102,10.029,0.94,15.722c-8.421,7.779-1.322,9.53,4.658,11.618
		c0.205,4.866-4.341,5.997-6.805,8.64c-8.152,8.744-8.25,8.652,2.781,17.825c-0.091-4.032-0.565-7.757-0.128-11.372
		c0.32-2.645,1.776-5.584,5.243-5.062c3.416,0.515,3.84,3.782,3.632,6.362c-0.347,4.31,0.068,10.601-2.47,12.456
		c-7.946,5.805-4.692,12.954-0.948,16.662c11.397,11.288,8.72,22.325,2.467,34.292c-0.679,1.298-0.158,3.224-0.194,4.858
		c-0.901,1.257-1.802,2.515-2.703,3.772c-9.367,3.337-15.055-4.638-22.416-7.414c-2.182-0.823-3.383-4.249-2.11-5.49
		c10.175-9.917-4.376-16.942-2.883-26.552c1.383-8.907-2.587-18.646-4.606-30.377c-6.906,13.054-14.139,23.654-14.178,37.341
		c-0.008,2.621-0.864,5.477-2.11,7.807c-2.528,4.722-11.021,9.365-8.578,12.887c8.31,11.986,1.946,26.801,9.292,38.368
		c1.717,2.704,4.396,4.794,6.632,7.166l0,0c-3.244,0.57-6.487,1.139-9.731,1.707c-0.875-0.626-1.75-1.251-2.625-1.877
		c-0.371-0.29-0.748-0.572-1.148-0.821c-0.002-0.001-0.004-0.003-0.006-0.004c0.002,0.001,0.004,0.003,0.006,0.004
		c-0.002-0.001-0.004-0.003-0.006-0.004c1.603-4.315,0.734-7.944-1.228-12.3c-5.165-11.469-9.202-23.446-13.69-35.221c0,0,0,0,0,0
		c0,0,0,0,0,0c-0.161-1.073-0.327-2.146-0.498-3.219c8.4-1.186,8.362-9.262,11.591-14.518c12.721-20.702,13.182-27.178,5.171-49.086
		c-0.631-1.726,0.782-4.199,1.245-6.325c7.853-4.674,17.45-6.766,22.155-16.022c2.98-5.863,10.827-9.872,5.982-18.409
		c-1.773-3.125-1.041-6.488,1.867-8.837c11.434-9.244,14.379-20.987,13.783-35.522c-0.378-9.209,4.229-18.691,6.968-27.941
		c2.591-8.747,4.252-17.134-3.761-24.139c-0.405-0.355-1.096-0.899-1.025-1.211c3.91-17.153-12.438-26.014-16.362-39.969
		c-1.537-5.465-5.788-9.248-10.04-12.643c-9.377-7.486-18.928-14.759-28.545-21.936c-2.539-1.896-5.531-1.214-8.419-0.69
		c1.314-1.485,2.617-2.977,3.961-4.449C824.451,102.915,827.636,104.333,831.026,105.944z"/>
	<path fill="#5A9357" d="M832.727,436.361c0.875,0.626,1.75,1.251,2.625,1.877l0,0C834.39,437.733,833.576,437.023,832.727,436.361z
		"/>
	<path fill="#65975A" d="M891.296,419.486c-1.878,5.618-4.974,10.929-2.761,17.185c0.719,2.032,0.61,5.007,2.002,6.042
		c7.749,5.765,9.377,14.176,12.728,22.486c2.173,5.388,2.139,8.237,0.262,12.651c-3.119,7.337-3.649,14.677,0.779,21.836
		c3.833,6.199,4.776,12.157-1.957,17.197c0.114-2.154,0.884-4.531,0.238-6.427c-5.179-15.225-8.161-30.532-6.647-46.879
		c0.582-6.282-6.605-9.074-11.975-8.096c-4.947,0.902-8.716,6.138-5.321,11.204c4.625,6.901-0.669,13.943,1.875,20.557l0,0
		c-1.437,1.483-2.875,2.965-5.901,6.085c-0.769-8.858-2.949-15.8-2.662-23.444c0.411-10.929,4.249-23.523-13.381-26.274
		c-4.198-0.655-6.874-8.368-13.493-7.078l0,0c-2.236-2.372-4.916-4.462-6.632-7.166c-7.346-11.567-0.982-26.382-9.292-38.368
		c-2.442-3.522,6.05-8.165,8.578-12.887c1.246-2.33,2.103-5.186,2.11-7.807c0.039-13.687,7.272-24.286,14.178-37.341
		c2.019,11.732,5.99,21.471,4.606,30.377c-1.493,9.61,13.059,16.635,2.883,26.552c-1.273,1.241-0.072,4.667,2.11,5.49
		c7.361,2.776,13.049,10.751,22.416,7.414c-0.119,0.53-0.108,1.14-0.376,1.579C881.083,411.871,893.418,413.137,891.296,419.486z"/>
	<path fill="#528B4B" d="M835.352,438.238L835.352,438.238l-0.002,0c0.342,1.037,0.473,2.215,1.058,3.089
		c4.422,6.608,5.944,14.071,6.075,21.79c0.132,7.767-8.383,7.721-11.847,12.319c-0.986,1.31-2.364,2.481-2.894,3.955
		c-5.526,15.379-19.718,20.899-32.284,27.946c-8.493,4.762-17.675,8.995-27.384,1.924c-2.832-2.062-6.31-1.071-9.541-1.338
		c-6.011-0.497-12.021-1.402-15.881-6.974l0,0c5.067-2.029,10.204-3.829,15.759-2.4c8.514,2.191,14.625-1.364,19.779-7.773
		c2.386-2.966,4.72-6.279,7.814-8.316c12.052-7.935,12.58-19.847,10.32-31.801c-0.97-5.131,0.32-10.733-3.161-15.716
		c-3.366-4.819-0.079-8.986,4.643-9.777c7.963-1.335,8.976-6.248,11.543-12.889c3.013-7.796,3.349-13.276-1.809-19.352c0,0,0,0,0,0
		c3.688-0.432,6.218-3.016,9.118-4.912c0,0,0,0,0,0c4.487,11.774,8.525,23.751,13.69,35.221c1.962,4.356,2.831,7.985,1.228,12.3
		c0.002,0.001,0.004,0.003,0.006,0.004c0.383,0.273,0.765,0.548,1.148,0.821C833.576,437.023,834.39,437.733,835.352,438.238z"/>
	<path fill="#528B4B" d="M832.727,436.361c-0.383-0.273-0.765-0.548-1.148-0.821C831.979,435.789,832.356,436.071,832.727,436.361z"
		/>
	<path fill="#5C8948" d="M794.107,608.095c3.594-0.153,5.735,5.296,10.149,3.036c1.715-3.51,2.658-7.143,2.275-11.048
		c-0.366-3.724,1.218-6.152,4.668-7.621c12.573-5.354,22.105-14.736,31.959-23.81c5.381-4.955,14.805-8.213,19.201-4.636
		c10.656,8.667,10.726-0.462,13.677-5.867c0.565,3.243,1.13,6.486,1.695,9.729c0,0,0,0,0,0c-0.973,7.477-1.599,15.019-3.004,22.414
		c-1.888,9.939-5.343,13.071-15.199,13.248c-12.068,0.215-21.48,5.041-29.688,13.72c-6.56,6.938-14.043,13.001-21.136,19.433
		c-5.892-8.043-11.548-16.216-16.898-24.552C791.753,610.311,791.44,608.209,794.107,608.095z"/>
	<path fill="#5A7C3E" d="M905.25,553.122L905.25,553.122L905.25,553.122c1.229,0.916,2.459,1.831,3.688,2.747
		c0.376,2.13,0.751,4.261,1.126,6.391l0,0c0,0-0.001-0.001-0.001-0.001c-6.299,7.391-3.897,15.698-2.512,23.897
		c-8.231-4.113-16.44-8.063-20.456-17.368c-2.169-5.028-5.967-3.267-9.364-0.91c-0.565-3.243-1.13-6.486-1.695-9.729
		c1.032-16.015,2.065-32.03,3.206-49.718c6.322,4.393,9.578,8.965,10.833,15.043c0.654,3.168,1.242,6.338,4.526,7.941
		c0.077,0.038,0.138,0.086,0.218,0.123C899.714,538.048,898.727,547.4,905.25,553.122z"/>
	<path fill="#6D8F54" d="M878.644,466.685c-3.395-5.065,0.373-10.301,5.321-11.204c5.37-0.978,12.557,1.815,11.975,8.096
		c-1.514,16.347,1.468,31.654,6.647,46.879c0.645,1.896-0.124,4.273-0.238,6.427l0,0c0.72,4.331,1.441,8.662,2.161,12.992
		c0,0,0,0.001-0.001,0.001c-1.657,1.392-1.483,2.469,0.553,3.229l0,0l0,0c0.218,1.087,0.437,2.174,0.656,3.261
		c0,0,0.001,0.001,0.001,0.001c-0.001,0-0.001-0.001-0.002-0.001c0.479,2.617,1.416,4.913,4.174,5.926
		c0.914,3.586-0.578,6.853-1.358,10.214c0,0,0.001,0.001,0.001,0.001c0,0-0.001-0.001-0.001-0.001c0.001,0-0.101,0.114-0.101,0.115
		l0,0c-1.063,0.152-2.124,0.318-3.181,0.5l0,0c-6.523-5.723-5.536-15.075-10.431-21.584c0.003-0.056,0.002-0.111,0.004-0.167
		c0.49-11.554-3.097-22.729-3.078-34.351c0.008-4.791-0.503-14.667-11.225-9.779l0,0
		C877.975,480.628,883.27,473.586,878.644,466.685z"/>
	<path fill="#5C8948" d="M801.252,583.041c0.557,2.264-1.625,3.978-3.708,4.7c-2.823,0.98-5.317,0.415-6.471-2.694
		c-0.288-2.411-0.012-4.548,2.52-5.359C797.054,578.581,800.292,579.139,801.252,583.041z"/>
	<path fill="#83AD76" d="M934.372,334.359L934.372,334.359c-0.893,1.267-1.785,2.534-2.678,3.801
		C932.643,336.933,933.407,335.575,934.372,334.359z"/>
	<path fill="#83AD76" d="M916.546,423.855c4.794-11.117,3.209-23.516,6.889-34.885c2.171-6.704-2.06-12.529-2.952-18.822l0,0
		c-0.364-2.164-0.728-4.328-1.092-6.492l0,0l0,0c6.159-1.349,8.819-5.166,8.049-11.405c0.892-1.266,1.784-2.534,2.676-3.8
		l0.005-0.001c0.892-1.267,1.784-2.534,2.677-3.801c-0.368-2.163-0.736-4.326-1.104-6.49c0.893-1.267,1.785-2.534,2.678-3.801
		l0.004-0.001c6.53-4.42,13.338-8.686,10.176-18.451c3.42-2.592,7.248-4.759,8.853-9.141c1.594-4.35,4.946-8.363,9.038-8.496
		c8.044-0.262,8.745-4.028,7.428-10.364c-0.384-1.845-0.199-2.949,0.327-3.601c0.101-0.099,0.201-0.2,0.302-0.3
		c1.155-0.898,3.32-0.447,5.27-0.189l0,0c0,0,0.001,0,0.001,0.001c0.326,0.409,0.816,1.216,0.952,1.16
		c1.044-0.427,0.696-0.887-0.952-1.16c0-0.001,0-0.001,0-0.001s0,0-0.001,0c2.316-5.531,6.969-3.571,11.072-3.493
		c7.431,0.141,12.393-1.957,10.603-10.993c-0.375-1.894,0.946-4.124,1.485-6.199c3.184-0.548,6.368-1.096,9.552-1.644
		c-7.803,19.18,1.763,36.004,7.888,52.883c-2.169,1.625-3.697,1.399-4.897,0.139c-4.126-4.337-8.697-7.69-13.87-2.101
		c-4.285,4.63-3.667,8.974,0.964,14.168c3.322,3.726,5.67,11.107,0.947,14.933c-6.131,4.967-10.678-2.132-15.477-5.193
		c-0.883-0.563-1.488-1.583-2.179-2.426c-11.221-13.676-20.979-15.182-33.285-2.836c-13.483,13.528-24.218,28.85-16.53,49.937
		c0.855,2.346-0.404,5.383-0.223,8.07c1.186,17.598-7.654,32.43-13.129,48.191C914.884,433.282,914.389,428.857,916.546,423.855z"/>
	<path fill="#83AD76" d="M932.799,344.65c-0.893,1.267-1.785,2.534-2.677,3.801C931.012,347.183,931.778,345.826,932.799,344.65z"/>
	<path fill="#83AD76" d="M930.117,348.451c-0.892,1.267-1.785,2.534-2.676,3.8C928.304,350.965,929.186,349.691,930.117,348.451
		L930.117,348.451z"/>
	<path fill="#85AB72" d="M919.745,563.331c0.234,0.167,0.468,0.334,0.702,0.501C920.182,563.701,919.956,563.525,919.745,563.331z"
		/>
	<path fill="#85AB72" d="M911.025,497.545c-0.154-11.788-0.918-23.568-1.406-35.351l0,0l0,0c3.087-3.388,5.492-7.977,3.335-11.746
		c-5.24-9.152-2.34-19.037-4.11-28.231c-3.759-19.523,6.204-35.106,11.638-52.069c0.892,6.293,5.123,12.117,2.952,18.822
		c-3.68,11.369-2.095,23.768-6.889,34.885c-2.157,5.002-1.662,9.427,2.145,13.399c4.007,6.357,9.333,12.266,5.966,20.818
		c-4.61,11.711-7.889,23.355-0.772,35.568c1.349,2.315-0.271,6.359-0.521,9.606c1.034,7.247,3.71,11.31,11.508,6.222
		c1.746-1.139,3.87-1.698,5.82-2.525c0.844,5.943-3.56,7.094-7.726,8.499c-6.889,2.323,5.105,6.961-1.238,9.681
		c-3.838,1.646-8.813-2.419-12.085,2.888c1.077,5.483,4.974,10.981,3.133,16.874c-3.424,10.963,2.857,15.895,11.214,19.924
		c-2.165,0.394-4.33,0.788-6.494,1.183l0,0l0,0c-2.348-0.72-4.697-1.44-7.046-2.16l0,0
		C909.903,542.785,911.319,520.066,911.025,497.545z"/>
	<path fill="#8EAD74" d="M934.872,509.469c-7.798,5.088-10.474,1.025-11.508-6.222c5.943,0.447,13.44-6.384,17.328,3.698
		C938.742,507.771,936.618,508.33,934.872,509.469z"/>
	<path fill="#83AD76" d="M1003.787,317.866c0.387,0.499-0.094,1.671-0.192,2.544c-0.88-0.298-1.903-0.408-2.606-0.94
		c-1.013-0.767-0.817-1.722,0.257-2.429C1002.127,317.288,1003.336,317.284,1003.787,317.866z"/>
	<polygon fill="#91B47E" points="940.064,468.92 941.043,470.146 939.56,469.633 	"/>
	<path fill="#486A31" d="M530.718,647.607c-3.779,0.681-7.551,1.35-11.113-0.858c-7.22-4.476-15.599-4.411-23.551-6.049
		c-3.212-0.661-8.76,2.566-8.836-3.755c-0.061-5.083,4.365-5.207,8.457-5.088c1.683,0.049,2.738-1.467,2.634-3.675
		c-4.113-3.53-9.885-3.391-14.65-5.713c-4.912-2.394-9.686-8.659-15.052-0.643c-11.088-2.934-24.534,1.204-33.074-8.99
		c-8.022-9.575-18.666-13.776-29.503-18.328c-9.992-4.197-14.157-1.698-12.463,9.167c0.693,4.448,2.981,8.149-2.048,11.144
		c0,0,0,0,0,0c-2.076-8.755-2.676-17.577-1.195-26.492c4.491-0.764,5.153-5.049,7.527-7.852
		c8.896-10.507,23.287-10.827,30.178,0.778c4.795,8.076,11.726,10.764,18.949,14.231c1.42,0.682,4.158,1.65,4.433,1.24
		c6.248-9.304,14.368,3.056,21.233-1.973c2.745-2.009,6.749,0.212,8.79,2.674c6.859,8.279,16.718,11.841,25.606,16.844
		c4.923,2.772,9.654,6.267,11.863,10.819c4.301,8.861,11.114,11.217,19.851,11.116l0,0c0,0,0.054,0.056,0.054,0.056l0,0
		C537.029,640.696,531.267,642.294,530.718,647.607z"/>
	<path fill="#486A31" d="M399.448,635.276c-2.068,4.045-3.444,7.605-2.386,11.988c-6.552-1.769-9.541-7.175-11.93-12.649
		c-1.387-3.179-6.086-6.306-2.717-10.173c3.031-3.48,7.151-0.522,10.78,0.109C401.141,624.705,402.289,629.721,399.448,635.276z"/>
	<path fill="#385F2C" d="M484.683,749.34c0.015-0.089,0.03-0.179,0.046-0.269c0.127,0.073,0.238,0.147,0.359,0.22
		c0.04,0.024,0.08,0.049,0.119,0.073c4.251,2.618,4.512,5.681,1.322,9.132c-1.098-0.225-2.197-0.448-3.294-0.677
		c0.453-2.655,0.907-5.309,1.36-7.965C484.625,749.682,484.654,749.511,484.683,749.34z"/>
	<path fill="#486A31" d="M415.522,657.414c-2.674,0.422-5.182,0.287-7.016-2.1C411.172,654.919,413.674,655.071,415.522,657.414z"/>
	<polygon fill="#385F2C" points="483.751,747.845 484.729,749.071 483.247,748.559 	"/>
	<path fill="#385F2C" d="M477.355,756.14c0.028,0.058-0.114,0.199-0.301,0.362c-0.249-0.054-0.499-0.109-0.748-0.163
		C476.589,755.452,476.974,755.358,477.355,756.14z"/>
	<path fill="#486A31" d="M419.488,655.457c0.946-0.708,1.843-0.353,2.522,0.84c-1.084,0.187-2.168,0.373-3.253,0.56
		c0.059-0.12,0.111-0.251,0.162-0.383C419.068,656.08,419.203,655.67,419.488,655.457z"/>
	<path fill="none" stroke="#486A31" stroke-width="0" stroke-linecap="round" stroke-linejoin="round" d="M404.703,652.629
		c1.257,0.886,2.514,1.773,3.772,2.658"/>
	<path fill="none" stroke="#486A31" stroke-width="0" stroke-linecap="round" stroke-linejoin="round" d="M404.673,652.601
		c-1.259-0.885-2.518-1.771-3.777-2.657"/>
	<path fill="none" stroke="#486A31" stroke-width="0" stroke-linecap="round" stroke-linejoin="round" d="M400.866,649.917
		c-1.302-0.829-2.557-1.724-3.787-2.655"/>
	<path fill="#6B7833" d="M538.755,636.205L538.755,636.205c5.222-9.555,18.228-11.156,22.267-22.429
		c1.513-4.221,8.216-0.693,13.973-4.314c-15.225-9.608-26.872-22.802-45.123-25.166l0,0c0.8,7.74-3.677,10.289-10.422,11.983
		c-6.388,1.603-12.41-5.226-18.777,0.009c-1.613,1.326-2.039-1.526-2.941-2.629c-12.677-15.498-24.374-18.445-42.364-10.254
		c-2.43,1.106-4.424,3.975-7.032,1.509c-6.059-5.731-15.948-5.94-20.474-13.058c-4.779-7.517-11.538-10.919-19.356-13.397
		c-5.673,0.608-10.439,2.45-11.916,8.763c-0.669,3.293-2.432,5.812-5.326,7.531c0,0-0.01,0.034-0.01,0.034c0,0,0,0,0,0
		c-0.35,4.492-0.699,8.983-1.048,13.475c0,0,0,0,0,0l0.12,0.066c4.491-0.764,5.153-5.049,7.527-7.852
		c8.896-10.507,23.287-10.827,30.178,0.778c4.795,8.076,11.726,10.764,18.949,14.231c1.42,0.682,4.158,1.65,4.433,1.24
		c6.248-9.304,14.368,3.056,21.233-1.973c2.745-2.009,6.749,0.212,8.79,2.674c6.859,8.279,16.718,11.841,25.606,16.844
		c4.923,2.772,9.654,6.267,11.863,10.819C523.205,633.949,530.018,636.305,538.755,636.205z M550.796,604.212
		c0.161-0.475,0.322-0.95,0.483-1.425c0.374,0.325,0.961,0.594,1.064,0.989c0.105,0.403-0.265,0.931-0.427,1.404
		C551.543,604.857,551.17,604.535,550.796,604.212z"/>
	<path fill="#827F36" d="M519.45,596.279c-6.388,1.603-12.41-5.226-18.777,0.009c-1.613,1.326-2.039-1.526-2.941-2.629
		c-12.677-15.498-24.374-18.445-42.364-10.254c-2.43,1.106-4.424,3.975-7.032,1.509c-6.059-5.731-15.948-5.94-20.474-13.058
		c-4.779-7.517-11.538-10.919-19.356-13.397c7.432-0.606,14.723-4.465,22.339-0.091c5.972,3.43,10.327,1.271,12.957-5.011
		c2.93-6.998-0.989-10.063-6.7-12.211c-1.859-0.699-4.373,0.189-5.523-2.348c3.693-3.076,10.175-0.822,12.524-6.473l0,0
		c1.069-0.227,2.142-0.425,3.221-0.595c11.28,2.997,22.07-0.844,33.026-2.369l0,0l0,0c0,0,0,0,0,0
		c0.001-0.001,0.001-0.002,0.002-0.003c0.846-1.194,1.69-2.388,2.533-3.579l0,0c0.004-0.006,0.265-0.385,0.267-0.387
		c0.001,0,0.002-0.001,0.003-0.001c7.692,3.81,14.785,8.384,20.14,16.025c-15.079-3.14-29.849-1.056-45.273-0.918
		c2.357,11.07,11.136,12.824,19.146,15.712c18.911,6.818,37.836,13.661,52.704,28.086l0,0
		C530.671,592.036,526.195,594.585,519.45,596.279z"/>
	<path fill="#7A7632" d="M482.885,525.78c-1.034,0.081-2.066,0.178-3.095,0.29c-1.483-1.883-2.967-3.765-4.45-5.649
		c-0.023-0.019-0.047-0.035-0.07-0.054c0.023,0.017,0.047,0.034,0.07,0.052c-0.023-0.018-0.047-0.035-0.07-0.052
		c-1.191-0.989-2.466-1.864-3.716-2.774c0,0-0.005,0.011-0.005,0.011c0,0,0,0,0,0c-0.001-2.728,0.09-5.762,3.129-6.674
		c6.147-1.841,13.217-2.381,8.567-12.097c-0.994-2.077,2.171-3.953,4.166-3.391c8.553,2.409,15.005-4.88,23.009-4.589
		c3.202,5.543,7.773,8.427,14.362,9.143c4.391,0.477,10.44-0.494,11.696,6.378c-11.696-5.63-23.988-2.625-31.648,4.926
		c-6.691,6.595-14.138,9.92-21.673,14.09c-0.001,0-0.002,0.001-0.003,0.001C483.149,525.395,482.889,525.774,482.885,525.78z"/>
	<path fill="#7A7632" d="M567.337,511.083c-4.247-0.236-9.518-2.188-12.545-0.38c-8.201,4.894-12.815-0.551-18.316-4.328
		C546.807,507.658,558.161,502.226,567.337,511.083z"/>
	<path fill="#4C8950" d="M319.566,623.863l0.979,1.227l0.505-0.715L319.566,623.863c1.061-1.883,1.655-4.672,3.259-5.498
		c9.102-4.681,9.889-11.469,7.105-20.497c-3.169-10.277-1.502-11.94,9.467-12.605c6.925-0.42,13.645-1.883,20.427,2.312
		c5.527,3.418,12.108,2.041,16.593-2.678c4.322-4.546,10.35-6.101,14.835-10.109c-0.35,4.492-0.699,8.983-1.048,13.475l0,0
		c-3.93,2.936-7.859,5.871-11.79,8.807c-7.599,5.692-10.187,17.747-22.369,17.62c-3.514,7.154-7.538,14.118-10.318,21.547
		c-1.306,3.493-1.405,7.5-3.94,10.562c-5.263,6.359-6.951,12.566-3.717,21.127c1.754,4.643-0.74,10.891-1.664,16.546
		c-9.863-9.156-19.258-18.677-28.201-28.544C309.239,644.279,307.924,631.809,319.566,623.863z"/>
	<path fill="#478151" d="M338.07,667.925c-3.233-8.561-1.546-14.768,3.717-21.127c2.535-3.063,2.634-7.07,3.94-10.562
		c2.779-7.429,6.803-14.393,10.318-21.547c12.183,0.127,14.77-11.928,22.369-17.62c0.525,8.05-2.869,15.53-3.543,23.59
		c-1.371,16.379,0.329,33.251-6.081,49.523c-2.537,6.44-7.175,13.413-5.004,22.413c2.871,11.904,10.555,18.466,19.82,24.233
		c4.336,2.699,9.009,4.775,10.316,10.112c-18.086-10.055-35.04-22.236-50.943-36.453c-2.219-1.984-4.4-3.996-6.575-6.015
		C337.33,678.816,339.824,672.568,338.07,667.925z"/>
	<path fill="#3D632E" d="M446.488,682.176c-0.002-0.003-0.004-0.007-0.006-0.009c0.009,0.002,0.016,0.003,0.026,0.005
		c0,0,0.001,0.001,0.002,0L446.488,682.176z"/>
	<path fill="#3D632E" d="M445.539,681.008c0.125-0.053,0.617,0.747,0.943,1.159C444.855,681.904,444.509,681.45,445.539,681.008z"/>
	<path fill="#A2A964" d="M935.426,573.917c-3.916-0.892-5.645-4.904-7.93-7.924l0,0c2.165-0.395,4.33-0.789,6.494-1.183
		c11.87,4.556,20.01,16.839,34.542,16.323c2.189-0.077,5.606,4.044,4.918,7.537c-2.12,10.761,5.537,14.03,12.697,18.284
		c5.513,3.276,12.735,3.509,16.748,9.395c0,0.001,0,0.001,0,0.001c0.026,0.175,0.053,0.35,0.08,0.524
		c-4.605,9.682-9.708,19.148-15.286,28.407c-6.586-11.605-8.458-25.083-15.764-36.653
		C962.524,593.741,954.6,578.292,935.426,573.917z"/>
	<path fill="#496129" d="M831.959,652.475c5.728,2.1,12.855,3.776,16.914-0.763c7.073-7.911,19.168-10.513,22.59-22.183
		c1.96-6.683,4.959-13.059,7.414-19.602c1.459-3.889,4.214-6.135,8.221-6.956l0.005,0.032l0,0l0,0
		c5.992,3.835,7.474,12.762,15.783,13.983c0.189,1.074,0.378,2.147,0.567,3.22c0,0,0.001,0.001,0.001,0.001
		c0,0-0.001-0.001-0.001-0.001c0.364,2.172,0.727,4.342,1.091,6.514l0,0c0,0-0.038,0.038-0.039,0.038l-0.001,0.001l0,0
		c-8.895-3.858-16.258,5.401-25.107,3.004c-0.044-0.012-0.092,0.009-0.137,0.007c-0.668-0.029-1.472,0.953-1.583,2.032
		c-0.061,0.594,0.076,1.208,0.593,1.684c2.378,2.193,3.326,4.321,0.893,6.778c-7.384,7.456-13.043,15.13-5.098,25.652
		c0.501,0.663,0.438,2.382-0.077,3.091c-9.442,12.988-8.94,26.999-3.097,42.15c-3.673-1.463-6.095-2.427-8.434-3.358
		c-5.13-11.212-12.207-21.671-21.787-31.143c-5.429-5.369-9.882-11.73-14.739-17.671c-1.24-1.516-2.442-3.053-3.663-4.58
		C825.165,652.429,828.119,651.066,831.959,652.475z"/>
	<path fill="#64965D" d="M873.857,74.256c-1.864,5.71-9.527,10.457-1.252,15.317c10.21,5.996,8.234-9.334,15.291-9.286
		c4.709,10.063,4.703,10.135,16.554,11.107c2.659,0.217,5.376-0.256,8.066-0.411c7.27,10.826,10.015,20.775,8.658,34.227
		c-0.328,3.256,0.82,5.075,2.851,6.95c3.878,3.58,2.898,7.714,1.618,12.071c-1.846,6.282-3.896,12.345-7.559,17.945
		c-2.949,4.51-5.941,10.199-3.29,15.337c4.135,8.015-4.829,14.135-1.915,21.558c-9.357,7.25-5.395,16.642-4.103,25.594
		c0.408,2.825-0.003,5.394-1.997,7.566c-2.916-8.358,0.151-18.532-7.705-25.391c0,0-0.001-0.001-0.001-0.001
		c-1.809-8.91-1.881-18.033-3.658-27.05c-1.304-6.616-4.005-16.026,4.221-23.215c1.26-1.101,2.24-2.691,2.648-4.19
		c0.52-1.906,0.084-3.64-1.884-4.045c-1.356-0.28-3.422,0.057-6.458,1.451c-0.646,0.297-2.606-0.502-2.626-0.863
		c-0.636-11.884-11.463-4.066-15.973-8.321c1.114-4.63,2.371-9.227,3.301-13.889c0.959-4.811-4.761-18.634-7.557-17.898
		c-8.098,2.129-10.465-4.472-14.127-8.919c-0.426-0.517-0.865-1.013-1.337-1.454c-0.425,0.587-0.832,1.128-1.238,1.664
		c-7.736,10.225-12.107,11.182-23.361,5.833c-3.391-1.612-6.575-3.029-10.296-2.845c8.877-9.715,18.415-19.116,28.625-28.2
		C857.362,76.448,865.342,79.963,873.857,74.256z"/>
	<polygon fill="#81A971" points="975.771,283.816 975.771,283.816 975.771,283.816 	"/>
	<path fill="#81A971" d="M997.445,269.33c1.79,9.036-3.172,11.135-10.603,10.993c-4.102-0.078-8.756-2.038-11.072,3.493
		c-1.95-0.258-4.115-0.709-5.27,0.189c-0.111,0.086-0.211,0.187-0.302,0.3c-0.526,0.651-0.711,1.756-0.327,3.601
		c1.317,6.336,0.616,10.103-7.428,10.364c-4.092,0.133-7.444,4.146-9.038,8.496c-1.605,4.383-5.434,6.549-8.853,9.141
		c-6.988,4.167-11.045,9.95-10.176,18.451l-0.004,0.001l0,0c-0.965,1.215-1.729,2.573-2.678,3.801
		c0.368,2.164,0.736,4.326,1.104,6.49c-1.021,1.176-1.786,2.533-2.677,3.801l-0.005,0.001l0,0c-0.931,1.24-1.813,2.514-2.676,3.8
		c0.77,6.239-1.89,10.056-8.049,11.405l0,0c1.011-4.823,5.722-8.542,4.212-14.117c0,0,0,0,0,0c-0.362-2.153-0.723-4.307-1.085-6.46
		c1.003-0.41,2.849-0.758,2.885-1.239c1.235-16.666,10.365-33.203-0.948-50.088c-4.267-6.368-3.412-14.501,2.214-21.34
		c3.382-4.11,7.18-8.273,7.555-14.171c0.468-7.35,4.877-11.404,11.214-14.668c4.519-2.327,11.123-4.82,9.712-11.472
		c-1.347-6.35-4.921-12.027-12.563-13.383c-1.985-0.353-3.741-1.993-5.602-3.042c0.535-0.092,1.069-0.187,1.604-0.276
		c20.303-3.382,25.585-0.802,36.719,18.5c1.959,3.397,5.015,3.246,8.076,4.183c11.955,3.662,14.115,6.904,13.188,19.597
		c-0.223,3.059,1.057,5.138,2.359,7.452C998.391,265.206,997.07,267.436,997.445,269.33z"/>
	<path fill="#5F985A" d="M895.206,397.878c0.895-1.267,1.79-2.535,2.685-3.802C897.127,395.435,896.1,396.609,895.206,397.878z"/>
	<path fill="#5F985A" d="M912.195,310.587c0.621,0.846,1.392,1.947,1.328,2.876c-0.871,12.814,6.744,24.025,6.836,36.635l0,0
		c-0.814,0.726-2.297,1.411-2.344,2.184c-1.024,16.695-12.932,28.108-20.124,41.793c-0.895,1.267-1.791,2.535-2.685,3.802
		c-2.154,0.382-4.308,0.764-6.462,1.145c0.036-1.634-0.485-3.56,0.194-4.858c6.253-11.967,8.93-23.004-2.467-34.292
		c-3.744-3.707-6.998-10.857,0.948-16.662c2.538-1.855,2.123-8.147,2.47-12.456c0.208-2.58-0.217-5.847-3.632-6.362
		c-3.466-0.522-4.923,2.417-5.243,5.062c-0.437,3.615,0.037,7.34,0.128,11.372c-11.031-9.172-10.933-9.081-2.781-17.825
		c2.463-2.643,7.009-3.774,6.805-8.64c-5.98-2.087-13.078-3.839-4.658-11.618c6.161-5.693,6.792-10.939-0.94-15.722
		c-5.158-3.19-4.281-6.262-0.818-10.581c4.891-6.098,10.339-13.621,11.712-19.991c1.645-7.635,5.31-15.183,5.545-22.543
		c0.294-9.222,7.65-17.541,3.068-27.067c0.001,0.001,0.001,0.001,0.001,0.001c7.855,6.859,4.788,17.033,7.705,25.391
		c-1.846,11.383,0.082,22.669-5.979,34.292C894.348,278.902,900.893,295.186,912.195,310.587z"/>
	<path fill="#76A468" d="M942.587,216.717c7.642,1.357,11.216,7.033,12.563,13.383c1.411,6.653-5.193,9.146-9.712,11.472
		c-6.337,3.265-10.746,7.318-11.214,14.668c-0.376,5.898-4.174,10.061-7.555,14.171c-5.627,6.839-6.482,14.971-2.214,21.34
		c11.314,16.885,2.184,33.422,0.948,50.088c-0.036,0.482-1.883,0.83-2.885,1.239c-2.51-11.773-4.597-23.728-2.238-35.629
		c1.897-9.57-0.086-17.173-7.221-23.597c-2.443-2.2-6.199-5.069-4.639-7.966c5.276-9.793-0.618-21.037,3.868-30.147
		c7.695-15.629,17.047-30.442,25.703-45.598c0.833,3.638-0.782,6.901-1.573,10.29c-2.021,1.461-1.851,2.545,0.558,3.244l0.008-0.001
		C938.846,214.724,940.602,216.364,942.587,216.717z"/>
	<path fill="#76A468" d="M919.391,363.657L919.391,363.657c0.364,2.164,0.728,4.328,1.092,6.492l0,0
		c-5.434,16.963-15.398,32.546-11.638,52.069c1.77,9.194-1.13,19.079,4.11,28.231c2.157,3.769-0.247,8.357-3.335,11.746l0,0
		c-2.974-21.849-12.965-42.125-14.413-64.316c0.894-1.268,1.921-2.442,2.685-3.802c7.192-13.686,19.099-25.099,20.124-41.793
		c0.047-0.773,1.53-1.459,2.344-2.184l0,0c1.082-0.18,2.163-0.366,3.243-0.558c0,0,0,0,0,0
		C925.113,355.115,920.402,358.834,919.391,363.657z"/>
	<path fill="none" stroke="#A49D58" stroke-width="0" stroke-linecap="round" stroke-linejoin="round" d="M434.945,440.353
		c1.265,0.895,2.529,1.791,3.794,2.687"/>
	<path fill="#81A971" d="M936.419,210.433c0.186,1.081,0.372,2.163,0.558,3.244C934.567,212.978,934.398,211.894,936.419,210.433z"
		/>
	<path fill="#4F7136" d="M829.84,617.261c8.208-8.679,17.62-13.505,29.688-13.72c9.855-0.177,13.31-3.308,15.199-13.248
		c1.405-7.394,2.031-14.937,3.004-22.414c0,0,0,0,0,0c3.397-2.357,7.195-4.118,9.364,0.91c4.016,9.306,12.225,13.255,20.456,17.368
		c2.088,8.191-1.4,16.379,2.989,25.227c6.096,12.29,11.437,23.876,24.684,30.001c6.698,3.097,9.804,8.937,11.936,16.308
		c2.827,9.775,9.086,18.405,11.189,28.594c-6.189,7.352-12.761,14.534-19.786,21.514c-0.158-0.107-0.31-0.221-0.471-0.326
		c0,0.001-0.001,0.002-0.001,0.003l-0.001-0.004c-0.465-14.813-9.433-25.657-17.765-36.549c-2.524-3.299-4.654-5.831-3.42-9.937
		c4.055-13.49-1.593-24.398-9.143-34.822c-0.501-2.662-1.475-4.983-4.306-5.96c0,0-0.001-0.001-0.001-0.001
		c-0.19-1.073-0.379-2.146-0.567-3.22c1.654-11.602-0.833-13.805-15.783-13.983l0,0l-0.005-0.032
		c-0.494-2.09-0.988-4.18-1.329-5.622c-1.315-1.675-2.273-1.808-3.286-0.924c-10.922,9.526-21.611,14.833-36.34,16.887
		c-7.186,1.002-11.842,4.883-11.13,11.47c1.13,10.45-3.975,15.362-12.674,17.65c-3.966,1.043-4.546,3.267-4.688,6.143
		c-1.26-1.621-2.498-3.256-3.738-4.889c-0.427-1.517-1.277-2.742-2.711-3.565c-0.846-1.135-1.663-2.286-2.498-3.427
		C815.796,630.262,823.28,624.199,829.84,617.261z"/>
	<path fill="#496830" d="M904.572,626.716c-0.009,0.001-0.018,0.003-0.027,0.005l0,0c-0.364-2.172-0.727-4.342-1.091-6.514
		c0,0,0.001,0.001,0.001,0.001c2.831,0.977,3.805,3.298,4.306,5.96C906.698,626.35,905.635,626.533,904.572,626.716z"/>
	<path fill="#4F7136" d="M938.092,707.475c0.161,0.105,0.313,0.218,0.471,0.326c-0.416,0.413-0.855,0.816-1.274,1.228
		c0.267-0.516,0.534-1.034,0.802-1.551C938.091,707.477,938.092,707.476,938.092,707.475z"/>
	<path fill="#8B853A" d="M638.063,522.839c-2.507-2.636-7.101-3.345-9.465-6.05c-10.351-11.851-25.554-6.132-37.745-11.017
		c-15.851,9.591-26.534-4.225-39.284-8.674l0.007-0.001c0,0,0,0,0-0.001c9.393-1.851,15.922-10.521,27.05-9.676
		c5.23,0.397,9.739,4.465,15.104,2.422l0.026,0.023c7.119,6.245,14.781,10.993,24.877,9.05l0,0
		c13.452,6.361,25.136,16.393,40.176,19.455c1.779,1.896,3.535,3.818,5.267,5.766C655.072,531.586,646.574,531.786,638.063,522.839z
		"/>
	<polygon fill="#8B853A" points="551.57,497.098 551.57,497.098 551.572,497.097 	"/>
	<path fill="#817F3C" d="M487.408,495.442c-1.994-0.562-5.159,1.314-4.166,3.391c4.65,9.716-2.42,10.255-8.567,12.097
		c-3.039,0.911-3.13,3.945-3.129,6.674c-4.86-2.539-9.718-5.08-14.577-7.619c0,0,0,0-0.001,0c-1.286-0.863-2.573-1.725-3.86-2.588
		c-1.266-0.951-2.533-1.902-3.8-2.854c-0.001-0.002,0.206,0.476,0.211,0.487c-0.001-0.001-0.001-0.001-0.001-0.001
		c-0.254,0.012-0.509,0.022-0.762,0.033c0.184-0.174,0.368-0.346,0.552-0.521c1.398-6.989,9.639-10.432,9.105-18.785
		c-0.265-4.137,4.89-4.063,7.599-3.676c12.516,1.791,25.803-3.219,37.7,4.683c3.722,2.471,8.414,0.274,12.641-0.336l0.019-0.001l0,0
		l0.278,1.621c0,0,0.29,1.619,0.29,1.618l0,0c-2.175,0.396-4.349,0.792-6.524,1.188
		C502.413,490.562,495.961,497.852,487.408,495.442z"/>
	<polygon fill="#8F8B46" points="551.577,497.096 551.57,497.098 551.572,497.097 	"/>
	<path fill="#8F8B46" d="M516.651,488.047l-0.278-1.621c8.829-1.613,17.695-1.351,26.072-6.891
		c5.761-3.81,14.326-5.256,21.751-0.738c3.522,2.143,7.309,1.519,11.075,0.862l0,0c8.324-0.541,13.424,4.762,18.46,10.182l0,0
		c-5.365,2.043-9.873-2.025-15.104-2.422c-11.129-0.845-17.658,7.825-27.05,9.676c-2.984-3.444-6.701-2.082-10.289-1.568
		c-1.241-0.927-2.496-1.834-3.817-2.646c-0.001-0.001-0.003-0.002-0.005-0.003c0.002,0.001,0.004,0.003,0.005,0.003
		c-0.001-0.001-0.003-0.002-0.005-0.003l-0.006,0.001c-2.963-3.485-6.688-2.093-10.272-1.605c-3.416-0.537-6.831-1.072-10.247-1.609
		l0,0C516.941,489.666,516.651,488.047,516.651,488.047z"/>
	<path fill="#8B853A" d="M551.577,497.096C551.577,497.096,551.577,497.096,551.577,497.096c-0.001,0.001-0.004,0.001-0.005,0.002
		c-0.001,0-0.001,0-0.002,0c-3.586,0.518-7.296,1.849-10.282-1.57C544.876,495.014,548.593,493.652,551.577,497.096z"/>
	<path fill="#8B853A" d="M537.461,492.879c-3.584,0.485-7.299,1.818-10.272-1.605C530.773,490.786,534.497,489.394,537.461,492.879z
		"/>
	
		<line fill="none" stroke="#8B853A" stroke-width="0" stroke-linecap="round" stroke-linejoin="round" x1="537.472" y1="492.881" x2="537.467" y2="492.878"/>
	<path fill="none" stroke="#8B853A" stroke-width="0" stroke-linecap="round" stroke-linejoin="round" d="M541.289,495.527
		c-1.272-0.882-2.544-1.765-3.817-2.646"/>
	<path fill="#9B9551" d="M358.4,425.979c2.471,3.052,6.389,3.414,10.184,4.279c8.505,1.937,16.366,5.939,25.453,6.525
		c3.098,0.2,5.755,5.997,8.764,9.091c4.845,4.981,6.582-5.107,11.055-2.38c0.905,0.552,2.333,0.656,2.823,1.416
		c6.928,10.742,14.919,3.562,22.607,1.441l0,0c4.35,10.788,14.04,12.48,23.589,12.269c7.29-0.161,12.361,2.062,16.606,7.436
		c-10.381,3.098-20.57,4.956-29.117-4.331c-4.613-5.012-9.832-1.222-13.651,0.39c-12.826,5.414-23.393,5.257-34.355-5.132
		c-5.532-5.242-14.531-7.453-22.364-9.483c-9.872-2.557-18.65,2.76-25.032,13.299c-6.282-7.94-14.656-9.815-24.179-8.318
		c-3.893,0.612-5.115,3.65-6.131,6.855c-13.446-5.196-27.79-6.461-41.725-9.518c-6.275-4.882-14.171,0.87-20.579-3.138
		c-2.334-0.723-4.668-1.445-7.003-2.166c0-0.001,0-0.001,0-0.002c-0.052-0.52-0.097-0.979-0.145-1.464
		c-1.351-13.656-0.795-13.506,11.576-18.298c3.489-1.351,8.467,1.191,10.769-3.236c8.294-0.79,16.588-1.558,24.885-2.306
		c2.961,0.383,5.868-0.1,8.761-0.791c10.085-0.886,20.174-1.716,30.266-2.506C347.902,417.475,353.776,420.268,358.4,425.979z"/>
	<path fill="#96914E" d="M341.941,463.072c1.279,0.88,2.558,1.76,3.837,2.64C344.508,464.819,343.162,464.036,341.941,463.072z"/>
	<path fill="#96914E" d="M327.861,458.815c0.792,0.54,1.583,1.08,2.375,1.621C329.422,459.927,328.596,459.438,327.861,458.815z"/>
	<path fill="#96914E" d="M564.196,478.797c-7.425-4.518-15.989-3.072-21.751,0.738c-8.377,5.54-17.244,5.278-26.072,6.891l0,0
		l-0.019,0.001c-4.128-11.321-15.647-10.472-24.139-14.574c-2.053-0.991-4.671-0.69-6.203,0.859
		c-9.664,9.769-21.037,4.874-32.053,4.257c-17.77-0.993-35.569-1.499-53.359-2.065c-3.58-0.114-6.613,0.968-5.492,5.704
		c-8.714,0.456-16.227-4.057-24.388-5.891c-0.313-0.238-0.64-0.457-0.972-0.668c-0.945-0.649-1.89-1.299-2.835-1.948
		c0.945,0.65,1.89,1.299,2.835,1.948c-0.969-0.615-1.982-1.165-2.835-1.948c-1.077,0.176-2.156,0.341-3.237,0.492
		c-0.317-0.242-0.649-0.463-0.986-0.677c-0.941-0.648-1.882-1.295-2.824-1.942c0.941,0.647,1.883,1.294,2.824,1.942
		c-0.965-0.613-1.974-1.162-2.824-1.942c-1.076,0.184-2.154,0.354-3.233,0.509c-1.247-0.913-2.594-1.68-3.81-2.637
		c1.27,0.879,2.54,1.758,3.81,2.637c-1.27-0.879-2.54-1.758-3.81-2.637l0.002,0c-1.836-2.384-4.35-2.53-7.03-2.13l-0.008,0.001
		c-0.003-0.002-0.006-0.004-0.008-0.006c-1.279-0.88-2.558-1.76-3.837-2.64c-1.066,0.172-2.133,0.338-3.202,0.496
		c-0.001-0.001-0.003-0.002-0.005-0.003c0.001,0.001,0.003,0.002,0.005,0.003c-0.001-0.001-0.003-0.002-0.005-0.003
		c-0.502-0.402-1.044-0.747-1.589-1.086c-0.749-0.512-1.497-1.023-2.246-1.535c0.749,0.512,1.497,1.023,2.246,1.535
		c-0.771-0.48-1.549-0.947-2.246-1.535c-1.068,0.164-2.137,0.326-3.206,0.487c-0.462-0.366-0.958-0.683-1.457-0.995
		c-0.792-0.54-1.583-1.08-2.375-1.621c-0.001-0.001-0.002-0.001-0.002-0.002c-1.068,0.181-2.138,0.355-3.21,0.523
		c1.016-3.205,2.238-6.243,6.131-6.855c9.524-1.497,17.897,0.379,24.179,8.318l0.979,1.226l0.504-0.715l-1.483-0.511
		c6.382-10.539,15.16-15.857,25.032-13.299c7.833,2.03,16.832,4.24,22.364,9.483c10.962,10.389,21.529,10.546,34.355,5.132
		c3.82-1.612,9.039-5.402,13.651-0.39c8.547,9.286,18.736,7.428,29.117,4.331c5.799-1.258,11.584-2.584,17.399-3.759
		c11.204-2.263,22.578-3.187,33.252,1.477c8.645,3.778,17.52,5.118,26.697,5.702l0,0c5.079,5.332,14.346,3.077,18.444,10.185l0,0
		C571.505,480.316,567.718,480.94,564.196,478.797z"/>
	<path fill="#689855" d="M197.591,461.211c9.764-2.205,20.194-1.949,28.516-8.025c6.02,3.303,3.767,11.689,9.828,14.738
		c0.207,1.067,0.411,2.134,0.613,3.202l0,0c0,0-0.001,0-0.001,0c4.675,7.729,15.919,7.783,19.55,16.731
		c-3.096,2.459-6.979,4.083-8.604,8.103c-4.74-1.21-7.719-4.218-8.201-9.07c-0.734-7.383-5.942-11.269-11.599-15.743
		c-9.294,6.622-22.276,9.187-24.54,23.398c-6.537-9.346-13.49-18.41-20.919-27.16C185.682,461.503,192.156,462.438,197.591,461.211z
		"/>
	<path fill="#A69F5A" d="M260.226,453.724c-4.844,9.95-11.916,16.867-23.678,17.402l0,0c-0.202-1.068-0.406-2.135-0.613-3.202
		c-0.445-2.617-0.894-5.234-1.334-7.853c-3.497-20.773-2.212-21.963,17.664-16.368c0.88,0.247,1.767,0.469,2.651,0.698
		c0.142,0.037,0.284,0.074,0.426,0.112c0,0,0.001,0,0.001,0.001c2.334,0.721,4.669,1.443,7.003,2.166
		C261.639,449.028,260.932,451.375,260.226,453.724z"/>
	<path fill="#8F8B46" d="M618.636,498.915C618.636,498.915,618.635,498.915,618.636,498.915c-10.097,1.943-17.759-2.805-24.878-9.05
		C603.304,489.436,611.589,492.473,618.636,498.915z"/>
	<path fill="#56914F" d="M227.694,471.148c5.657,4.473,10.865,8.359,11.599,15.743c0.482,4.852,3.46,7.859,8.201,9.07c0,0,0,0,0,0
		c0,0,0.069,0.011,0.069,0.011c1.23,0.9,2.464,1.793,3.703,2.68c-1.236-0.893-2.471-1.786-3.704-2.679
		c1.234,0.893,2.469,1.786,3.704,2.679l0.029,0.028c1.295,0.843,2.469,1.854,3.756,2.707c-1.252-0.902-2.505-1.805-3.757-2.707
		c1.252,0.902,2.505,1.805,3.757,2.707c1.485,1.975,2.971,3.951,4.455,5.927c1.236,0.881,2.473,1.761,3.709,2.641
		c-1.237-0.881-2.474-1.761-3.71-2.641c1.236,0.88,2.473,1.76,3.71,2.641c10.225,10.531,20.763,20.659,33.58,28.135
		c3.803,2.219,7.204,5.098,12.03,4.093c1.106-0.147,2.211-0.294,3.316-0.44c0,0,0,0,0,0c2.514,3.77,6.332,7.745,10.044,7.983
		c17.151,1.101,28.644,16.855,46.045,17.017c2.995,0.028,5.968,2.484,8.95,3.818c0,0,0.001,0,0.001,0c0,0.001,0,0.001-0.001,0.001
		c-1.058,2.005-2.72,4.259-4.818,3.858c-12.702-2.427-25.695,1.943-38.404-2.35c-10.409-3.518-21.157-2.002-31.923-0.283
		c-5.16,0.824-7.208,4.439-10.272,7.211c-3.716,3.361-2.758,7.719,1.012,9.54c10.304,4.977,11.786,11.893,8.79,22.466
		c-1.207,4.259,2.24,10.212,1.781,15.652c-4.188,2.966-6.747,8.194-12.355,9.193c-20.238-25.105-37.753-52.283-52.511-81.496
		c-10.53-20.844-22.098-40.889-35.328-59.805C205.418,480.335,218.4,477.77,227.694,471.148z"/>
	<path fill="#4D8954" d="M813.397,111.369c-11.969,13.909-22.625,28.443-32.077,43.551c8.326,7.834,9.072,11.671,2.289,18.957
		c-4.384,4.709-9.06,8.818-9.072,15.702c-4.817-0.8-7.325-3.138-9.437-5.838c-1.333,2.656-2.626,5.331-3.892,8.019
		c5.444,4.785,9.679,12.982,19.265,6.134c1.034-0.739,4.25-0.535,4.525,0.085c5.97,13.492,17.404,1.993,25.847,5.547
		c5.343,2.248,6.453-6.702,11.245-8.821c0.28-0.124,0.568-0.235,0.875-0.308c0.402,0.028,0.734,0.095,1.033,0.18
		c2.805,0.799,1.461,3.911,2.45,5.737c3.21,5.928,6.777,9.2,13.917,3.386c6.751-5.497,8.315-4.505,10.111,3.83
		c1.132,5.253,2.082,9.381,7.721,12.672c8.486,4.954,0.65,11.38-0.636,17.163c4.136-1.826,8.273-3.651,12.41-5.476
		c9.993-24.552,6.473-47.287-9.555-68.111c-3.1-4.028-4.46-7.911-5.265-13.051c-1.035-6.608-0.259-14.945-6.474-19.462
		c-9.322-6.775-21.675-9.131-28.46-19.894C819.57,110.345,816.076,111.114,813.397,111.369z M817.577,188.703
		c-0.374-0.325-0.96-0.593-1.064-0.988c-0.105-0.403,0.264-0.932,0.426-1.405C818.221,186.803,818.434,187.6,817.577,188.703z"/>
	<path fill="#4A8556" d="M783.61,173.876c-4.384,4.709-9.06,8.818-9.072,15.702c-4.817-0.8-7.325-3.138-9.437-5.838
		c4.935-9.833,10.348-19.437,16.22-28.821C789.647,162.753,790.393,166.59,783.61,173.876z"/>
	<path fill="#496830" d="M822.339,642.433c8.699-2.288,13.804-7.201,12.674-17.65c-0.712-6.587,3.944-10.468,11.13-11.47
		c14.729-2.054,25.418-7.361,36.34-16.887c1.013-0.884,1.971-0.751,3.286,0.924c0.341,1.443,0.835,3.533,1.329,5.622
		c-4.007,0.821-6.762,3.066-8.221,6.956c-2.455,6.543-5.454,12.919-7.414,19.602c-3.422,11.67-15.517,14.272-22.59,22.183
		c-4.058,4.539-11.185,2.864-16.914,0.763c-3.841-1.409-6.794-0.046-9.691,1.929c-1.549-1.937-3.099-3.874-4.618-5.829
		C817.793,645.699,818.372,643.476,822.339,642.433z"/>
	<path fill="#528D4D" d="M303.348,626.654l0.979,1.226l0.504-0.714L303.348,626.654c0.459-5.44-2.987-11.393-1.781-15.652
		c2.996-10.573,1.514-17.488-8.79-22.466c-3.77-1.821-4.728-6.178-1.012-9.54c3.064-2.771,5.112-6.387,10.272-7.211
		c10.765-1.719,21.514-3.235,31.923,0.283c12.709,4.293,25.702-0.077,38.404,2.35c2.098,0.401,3.76-1.853,4.818-3.858
		c0,0,0.001,0,0.001-0.001c4.501,0.338,9.001,0.677,13.5,1.016c0.001,0.001,0.001,0.001,0.001,0.001
		c0.199,1.057,0.392,2.115,0.579,3.175c0,0-0.01,0.034-0.01,0.034c0,0,0,0,0,0c-4.485,4.008-10.513,5.563-14.835,10.109
		c-4.485,4.719-11.067,6.096-16.593,2.678c-6.782-4.195-13.502-2.732-20.427-2.312c-10.969,0.665-12.635,2.329-9.467,12.605
		c2.784,9.028,1.997,15.816-7.105,20.497c-1.604,0.826-2.198,3.615-3.259,5.498c-11.643,7.946-10.328,20.416-11.362,32.064
		c-4.647-5.126-9.17-10.349-13.568-15.666c-0.082-0.105-0.163-0.21-0.254-0.308c-1.13-1.369-2.276-2.726-3.389-4.106
		C296.601,634.848,299.159,629.621,303.348,626.654z"/>
	<path fill="#56914F" d="M294.382,639.953c0.091,0.098,0.172,0.203,0.254,0.308C294.551,640.159,294.467,640.056,294.382,639.953z"
		/>
	<path fill="#5D8A4A" d="M935.223,641.385c-13.247-6.124-18.588-17.711-24.684-30.001c-4.388-8.848-0.901-17.036-2.989-25.227
		c-1.385-8.199-3.787-16.506,2.512-23.897c0,0,0.001,0.001,0.001,0.001c0.223,1.093,0.447,2.187,0.672,3.281
		c0,0,0-0.001,0.001-0.001c0,0,0,0.001-0.001,0.001c0.032,3.241,0.636,6.604-0.023,9.697c-1.409,6.607,1.11,10.166,7.197,12.519
		c10.127,3.914,19.561,9.582,30.245,12.112c11.553,2.738,18.288,9.573,22.619,21.033c4.059,10.741,8.949,21.178,11.977,32.323
		c-7.317,11.38-15.434,22.408-24.401,33.06c-2.103-10.188-8.362-18.818-11.189-28.594
		C945.027,650.322,941.921,644.482,935.223,641.385z"/>
	<path fill="#74945A" d="M970.773,620.903c-4.33-11.46-11.065-18.295-22.619-21.033c-10.684-2.53-20.117-8.198-30.245-12.112
		c-6.087-2.353-8.606-5.912-7.197-12.519c0.659-3.093,0.055-6.456,0.023-9.697c0,0,0-0.001,0.001-0.001
		c2.372-1.874,2.483-4.427,2.137-7.117c2.291,1.636,4.581,3.271,6.872,4.906c0.211,0.194,0.437,0.37,0.702,0.501
		c0.001,0.001,0.002,0.001,0.003,0.002l0,0l0,0c2.348,0.72,4.697,1.44,7.046,2.16l0,0c2.284,3.02,4.014,7.032,7.93,7.924
		c19.175,4.374,27.099,19.824,36.5,34.71c7.306,11.57,9.178,25.048,15.764,36.653c-0.26,0.431-0.529,0.859-0.791,1.291
		c-0.464,0.467-0.772,1.02-0.995,1.622c-1.039,1.683-2.081,3.365-3.154,5.032C979.721,642.081,974.831,631.643,970.773,620.903z"/>
	<path fill="#518F51" d="M816.769,107.548c-1.126,1.273-2.268,2.537-3.372,3.821c2.678-0.255,6.173-1.024,6.82,0.002
		c6.786,10.763,19.138,13.119,28.46,19.894c6.214,4.517,5.439,12.854,6.474,19.462c0.805,5.139,2.165,9.023,5.265,13.051
		c16.028,20.824,19.547,43.559,9.555,68.111c0.451,5.124,3.589,10.819-3.381,14.269c-3.779,1.872-4.035,6.256-6.087,9.374
		c-1.482,2.252-2.18,5.182-4.025,7c-4.912,4.839-13.936,1.139-17.643,6.634c-2.797,4.147,2.738,11.906-4.605,15.572
		c-3.858,1.926-3.996,4.633-1.832,7.925c4.651,7.075,1.72,14.759,1.769,22.204c7.853-4.674,17.45-6.766,22.155-16.022
		c2.98-5.863,10.827-9.872,5.982-18.409c-1.773-3.125-1.041-6.488,1.867-8.837c11.434-9.244,14.379-20.987,13.783-35.522
		c-0.378-9.209,4.229-18.691,6.968-27.941c2.591-8.747,4.252-17.134-3.761-24.139c-0.405-0.355-1.096-0.899-1.025-1.211
		c3.91-17.153-12.438-26.014-16.362-39.969c-1.537-5.465-5.788-9.248-10.04-12.643c-9.377-7.486-18.928-14.759-28.545-21.936
		C822.649,106.342,819.657,107.024,816.769,107.548z M857.91,288.418c-3.837-4.606-7.657-4.719-7.695-8.725
		c-0.007-0.769,1.116-2.254,1.618-2.212C856.178,277.846,857.462,280.868,857.91,288.418z"/>
	<path fill="#325626" d="M599.505,659.18c-3.598,6.213-10.331,4.293-15.653,6.034C586.886,657.536,591.681,654.43,599.505,659.18z"
		/>
	<path fill="#325626" d="M622.219,655.271c-0.958,5.555-4.277,6.707-9.173,4.919C614.714,655.96,618.675,656.003,622.219,655.271z"
		/>
	<path fill="#325626" d="M609.802,660.748c-2.682,0.397-5.202,0.257-7.044-2.127l0,0C605.44,658.224,607.96,658.364,609.802,660.748
		z"/>
	<path fill="#729B61" d="M895.206,397.878c1.448,22.191,11.439,42.468,14.413,64.316l0,0c0.488,11.783,1.252,23.563,1.406,35.351
		c0.294,22.521-1.122,45.24,9.425,66.288l0,0c-0.001-0.001-0.002-0.001-0.003-0.002c-0.234-0.167-0.468-0.334-0.702-0.501
		c-2.291-1.635-4.581-3.27-6.872-4.906c-0.571-2.615-1.573-4.914-4.339-5.917c0,0,0-0.001-0.001-0.001
		c0.78-3.362,2.272-6.628,1.358-10.214c-0.392-2.678-1.34-4.967-4.172-5.925c0,0-0.001-0.001-0.001-0.001
		c-0.219-1.087-0.437-2.174-0.656-3.261l0,0c-0.156-1.081-0.34-2.159-0.552-3.23c0,0-0.001,0.001-0.001,0.001
		c0,0,0-0.001,0.001-0.001c-0.72-4.331-1.441-8.662-2.161-12.992l0,0c6.733-5.039,5.789-10.998,1.957-17.197
		c-4.427-7.159-3.898-14.499-0.779-21.836c1.878-4.415,1.911-7.263-0.262-12.651c-3.351-8.309-4.979-16.72-12.728-22.486
		c-1.392-1.036-1.283-4.01-2.002-6.042c-2.213-6.256,0.883-11.567,2.761-17.185c2.122-6.349-10.213-7.615-5.63-15.112
		c0.268-0.439,0.257-1.049,0.376-1.579c0.901-1.257,1.802-2.515,2.703-3.772C890.898,398.641,893.052,398.26,895.206,397.878z"/>
	
		<line fill="none" stroke="#5D8E4A" stroke-width="0" stroke-linecap="round" stroke-linejoin="round" x1="835.352" y1="438.238" x2="835.352" y2="438.238"/>
	
		<line fill="none" stroke="#5D8E4A" stroke-width="0" stroke-linecap="round" stroke-linejoin="round" x1="831.579" y1="435.54" x2="831.574" y2="435.536"/>
	<path fill="none" stroke="#5D8E4A" stroke-width="0" stroke-linecap="round" stroke-linejoin="round" d="M835.352,438.238
		c-0.875-0.626-1.75-1.251-2.625-1.877"/>
	<path fill="none" stroke="#5D8E4A" stroke-width="0" stroke-linecap="round" stroke-linejoin="round" d="M831.579,435.54
		c0.383,0.273,0.765,0.548,1.148,0.821"/>
	<path fill="#6D8F54" d="M908.938,555.87c-0.136-1.088-0.305-2.171-0.507-3.248c0.001-0.001,0.102-0.115,0.101-0.115
		c0,0,0.001,0.001,0.001,0.001c2.766,1.004,3.769,3.303,4.339,5.917c0.346,2.69,0.234,5.243-2.137,7.117
		c0,0-0.001,0.001-0.001,0.001c-0.225-1.094-0.449-2.188-0.672-3.281l0,0C909.689,560.131,909.314,558,908.938,555.87z"/>
	<path fill="#5D8A4A" d="M908.938,555.87c-1.229-0.916-2.459-1.831-3.689-2.747l0,0c1.057-0.182,2.118-0.348,3.181-0.5l0,0
		C908.634,553.699,908.802,554.782,908.938,555.87z"/>
	<path fill="#65975A" d="M905.718,536.367c0.001,0,0.001,0.001,0.002,0.001c2.833,0.958,3.78,3.247,4.172,5.925
		C907.134,541.28,906.197,538.984,905.718,536.367z"/>
	<path fill="#65975A" d="M904.51,529.876c0,0,0.001-0.001,0.001-0.001c0.212,1.072,0.396,2.149,0.552,3.23l0,0
		C903.026,532.345,902.852,531.268,904.51,529.876z"/>
	<path fill="#85AB72" d="M944.552,315.908c3.162,9.765-3.646,14.031-10.176,18.451C933.507,325.859,937.564,320.076,944.552,315.908
		z"/>
	<polygon fill="#81A971" points="975.772,283.817 975.771,283.816 975.771,283.816 	"/>
	<path fill="#81A971" d="M976.724,284.977c-0.136,0.055-0.626-0.752-0.952-1.16C977.42,284.09,977.768,284.55,976.724,284.977z"/>
	<path fill="none" stroke="#85AB72" stroke-width="0" stroke-linecap="round" stroke-linejoin="round" d="M934.372,334.359
		c-0.893,1.267-1.785,2.534-2.678,3.801"/>
	<path fill="none" stroke="#85AB72" stroke-width="0" stroke-linecap="round" stroke-linejoin="round" d="M932.799,344.65
		c-0.893,1.267-1.785,2.534-2.677,3.801"/>
	<path fill="none" stroke="#85AB72" stroke-width="0" stroke-linecap="round" stroke-linejoin="round" d="M930.117,348.451
		c-0.892,1.267-1.785,2.534-2.676,3.8"/>
	<path fill="#8C863E" d="M390.152,568.297c-1.001-7.992,3.85-14.216,6.389-21.139c4.139-7.287,8.314,0.776,13.009-0.149
		c3.424-3.106-3.48-7.871,1.085-11.084c3.46-2.437,7.13-1.971,10.922-1.272c7.731,1.422,15.02-1.641,22.546-2.328l0,0l0,0
		c-2.349,5.65-8.831,3.397-12.524,6.473c1.15,2.537,3.665,1.648,5.523,2.348c5.711,2.148,9.63,5.213,6.7,12.211
		c-2.63,6.282-6.986,8.441-12.957,5.011c-7.616-4.374-14.908-0.516-22.339,0.091c-5.673,0.608-10.439,2.45-11.916,8.763
		C394.443,567.58,392.297,567.938,390.152,568.297z"/>
	<path fill="#4C8950" d="M390.152,568.297c2.146-0.359,4.291-0.717,6.438-1.075c-0.669,3.293-2.432,5.812-5.326,7.531
		c-0.186-1.06-0.38-2.118-0.579-3.175c0,0-0.001-0.001-0.001-0.001c0.001,0.001,0.001,0.001,0.002,0.001
		C390.507,570.484,390.329,569.391,390.152,568.297z"/>
	<path fill="#706E2B" d="M552.344,603.776c0.105,0.403-0.265,0.931-0.427,1.404c-0.374-0.323-0.747-0.645-1.121-0.968
		c0.161-0.475,0.322-0.95,0.483-1.425C551.654,603.112,552.241,603.381,552.344,603.776z"/>
	<path fill="#9A9852" d="M475.269,520.367c-1.239-0.926-2.478-1.85-3.716-2.774C472.803,518.502,474.078,519.378,475.269,520.367z"
		/>
	<path fill="#9A9852" d="M421.557,534.653c-3.792-0.699-7.462-1.164-10.922,1.272c-4.564,3.213,2.34,7.977-1.085,11.084
		c-4.695,0.925-8.87-7.138-13.009,0.149c-6.336,1.249-13.12-0.41-19.142,3.135c-1.315,0.773-3.509,1.28-4.774,0.722
		c-12.928-5.701-27.861-2.726-40.506-9.469c15.94-8.188,33.529-8.836,50.758-11.222c6.104-0.846,9.001,5.935,14.72,5.659
		c1.827-8.179,7.492-14.106,12.946-13.569c12.499,1.229,12.499,1.229,16.678-10.563c1.071-0.188,2.143-0.373,3.215-0.553
		c3.002,3.379,6.707,2.047,10.289,1.536l0.004,0.021c0,0,0-0.001,0.001-0.001c0,0.001-0.001,0.001-0.001,0.002
		c9.665,7.384,12.674,6.853,16.242-2.871c0,0,0,0-0.001-0.001c0,0,0,0,0.001,0c4.859,2.539,9.718,5.08,14.577,7.619c0,0,0,0,0,0
		c0,0,0.005-0.011,0.005-0.011c1.239,0.923,2.478,1.848,3.716,2.774c0.023,0.019,0.047,0.035,0.07,0.054
		c1.484,1.883,2.967,3.766,4.45,5.649c-0.012,0.002-0.024,0.003-0.036,0.004l0,0l0,0c0,0,0,0,0,0
		c0.004,0.023,0.008,0.046,0.012,0.069c-8.739,0.56-17.476,1.182-26.221,1.64c-2.931,0.154-5.011,1.269-6.221,3.948
		c-1.079,0.17-2.152,0.368-3.221,0.595l0,0C436.576,533.012,429.288,536.075,421.557,534.653z"/>
	<polygon fill="#8C863E" points="480.35,529.362 480.35,529.362 480.352,529.359 	"/>
	<path fill="#8C863E" d="M453.544,527.782c8.745-0.458,17.482-1.08,26.221-1.64c0.195,1.074,0.39,2.147,0.585,3.22
		c-10.956,1.524-21.746,5.366-33.026,2.369C448.533,529.051,450.614,527.936,453.544,527.782z"/>
	<polygon fill="#8C863E" points="479.753,526.073 479.753,526.073 479.753,526.073 	"/>
	<path fill="#9A9852" d="M479.765,526.142c-0.004-0.023-0.008-0.046-0.012-0.069c0,0,0,0,0,0l0,0
		c0.012-0.001,0.024-0.002,0.036-0.004c1.029-0.112,2.061-0.209,3.095-0.29l0,0c-0.843,1.191-1.688,2.385-2.533,3.579
		c-0.001,0.001-0.001,0.002-0.002,0.003l0,0l0,0C480.155,528.289,479.96,527.216,479.765,526.142z"/>
	<path fill="none" stroke="#817F3C" stroke-width="0" stroke-linecap="round" stroke-linejoin="round" d="M475.339,520.419
		c-0.023-0.018-0.047-0.035-0.07-0.052"/>
	<path fill="none" stroke="#817F3C" stroke-width="0" stroke-linecap="round" stroke-linejoin="round" d="M475.269,520.367
		c-1.239-0.926-2.478-1.85-3.716-2.774"/>
	<polygon fill="#528D4D" points="320.546,625.091 319.566,623.863 321.051,624.376 	"/>
	<path fill="#496830" d="M887.104,603.003L887.104,603.003c14.95,0.178,17.437,2.381,15.783,13.983
		C894.578,615.765,893.096,606.838,887.104,603.003z"/>
	<path fill="none" stroke="#729B61" stroke-width="0" stroke-linecap="round" stroke-linejoin="round" d="M895.206,397.878
		c0.895-1.267,1.79-2.535,2.685-3.802"/>
	<path fill="#8F8B46" d="M446.179,505.176c-0.007-0.005-0.014-0.009-0.021-0.014c-1.277-0.883-2.554-1.768-3.831-2.652
		c-0.001-0.001-0.003-0.002-0.004-0.003l0.002,0l0,0l0,0l0,0c-0.002-0.001-0.004-0.003-0.006-0.004
		c-1.269-0.895-2.537-1.791-3.806-2.687c-12.377-7.498-25.745-12.641-39.588-16.655c-1.317-0.786-2.59-1.636-3.819-2.554
		c-1.121-4.736,1.911-5.817,5.492-5.704c17.791,0.566,35.59,1.072,53.359,2.065c11.016,0.616,22.389,5.512,32.053-4.257
		c1.532-1.549,4.151-1.85,6.203-0.859c8.492,4.102,20.011,3.253,24.139,14.574c-4.228,0.61-8.919,2.807-12.641,0.336
		c-11.897-7.902-25.185-2.892-37.7-4.683c-2.708-0.387-7.864-0.461-7.599,3.676c0.534,8.353-7.707,11.796-9.105,18.785
		c-0.184,0.174-0.368,0.347-0.552,0.521C447.898,505.101,447.039,505.14,446.179,505.176z"/>
	<path fill="#8F8B46" d="M442.327,502.51c1.277,0.884,2.554,1.769,3.831,2.652C444.875,504.287,443.51,503.53,442.327,502.51z"/>
	<path fill="#8F8B46" d="M438.514,499.816c1.269,0.896,2.537,1.792,3.806,2.687C440.964,501.732,439.798,500.69,438.514,499.816z"/>
	<path fill="#A09E57" d="M440.727,512.857c0-0.001,0-0.001,0.001-0.002c2.439-5.488,10.192,1.163,12.186-5.335l0,0l0.194-0.123
		c1.287,0.863,2.574,1.725,3.86,2.588c0,0.001,0.001,0.001,0.001,0.001C453.401,519.709,450.392,520.241,440.727,512.857z"/>
	<path fill="#A09E57" d="M449.52,505.03c-0.005-0.011-0.212-0.489-0.211-0.487c1.267,0.952,2.533,1.903,3.8,2.854l-0.194,0.123
		C451.78,506.688,450.648,505.856,449.52,505.03z"/>
	<path fill="#A09E57" d="M282.924,449.817c-6.275-4.882-14.171,0.87-20.579-3.138c-0.706,2.348-1.413,4.696-2.119,7.044l1.483,0.513
		l-0.504,0.714l-0.978-1.227c-4.844,9.95-11.916,16.867-23.678,17.402c0,0-0.001,0-0.001,0c4.675,7.729,15.919,7.783,19.55,16.731
		l0,0c7.742,13.142,19.61,17.573,35.646,14.946c-3.21,11.911,2.194,19.853,8.349,27.577c3.048,3.825,5.831,7.861,8.734,11.802
		c1.106-0.147,2.211-0.294,3.316-0.44c0,0,0,0,0,0c-0.001-0.001-0.001-0.001-0.001-0.001c6.635-2.489,13.318-0.028,19.976-0.194
		c15.94-8.188,33.529-8.836,50.758-11.222c6.104-0.846,9.001,5.935,14.72,5.659c1.827-8.179,7.492-14.106,12.946-13.569
		c12.499,1.229,12.499,1.229,16.678-10.563l0,0c-19.506-14.234-44.979-10.477-65.62-21.676c-3.847-2.087-9.662-1.361-14.425-0.769
		c-9.711,1.207-18.252-6.433-28.072-3.259c-5.885-14.351-28.947-8.05-31.712-26.41c-0.409-2.713-3.779-0.958-5.709-1.524
		c-2.88-0.846-7.387-0.694-5.967-5.413C276.541,450.057,280.341,450.5,282.924,449.817z M310.93,484.133
		c0.241,0.435,0.594,0.853,0.66,1.313c0.022,0.153-0.694,0.411-1.072,0.622c-0.24-0.435-0.593-0.853-0.658-1.313
		C309.838,484.601,310.552,484.344,310.93,484.133z"/>
	<path fill="#A69F5A" d="M327.858,458.813c0.001,0.001,0.002,0.001,0.002,0.002C327.86,458.814,327.859,458.813,327.858,458.813
		c0.001,0.001,0.001,0.001,0.002,0.002c0.735,0.624,1.561,1.113,2.375,1.621c0.486,0.332,0.972,0.664,1.457,0.995
		c-0.486-0.331-0.971-0.663-1.457-0.995c0.499,0.312,0.995,0.63,1.457,0.995c1.069-0.16,2.138-0.322,3.206-0.487
		c0.697,0.588,1.476,1.056,2.246,1.535c0.529,0.361,1.059,0.724,1.589,1.086c0.001,0.001,0.003,0.002,0.005,0.003
		c1.069-0.159,2.136-0.324,3.202-0.496c1.221,0.964,2.567,1.747,3.837,2.64c0.003,0.002,0.006,0.004,0.008,0.006
		c-0.003-0.002-0.006-0.004-0.008-0.006c0.003,0.002,0.006,0.004,0.008,0.006l0.008-0.001c1.84,2.371,4.35,2.53,7.03,2.13l-0.002,0
		c1.217,0.957,2.564,1.724,3.81,2.637c1.08-0.155,2.158-0.325,3.233-0.509c0.85,0.78,1.859,1.329,2.824,1.942
		c0.329,0.226,0.658,0.452,0.986,0.678c-0.328-0.226-0.657-0.452-0.986-0.678c0.337,0.214,0.668,0.435,0.986,0.677
		c1.081-0.151,2.16-0.316,3.237-0.492c0.853,0.784,1.867,1.333,2.835,1.948c0.324,0.223,0.648,0.445,0.973,0.668
		c-0.325-0.223-0.649-0.445-0.973-0.668c0.332,0.211,0.659,0.43,0.972,0.668c8.16,1.833,15.674,6.347,24.388,5.891
		c1.273,0.852,2.546,1.704,3.819,2.555c-1.273-0.852-2.546-1.703-3.819-2.555c1.229,0.918,2.502,1.768,3.819,2.554
		c13.843,4.014,27.211,9.156,39.588,16.655c1.284,0.874,2.45,1.916,3.806,2.687c0.002,0.001,0.004,0.003,0.006,0.004l-0.002,0
		c0.001,0.001,0.003,0.002,0.004,0.003c-0.001-0.001-0.003-0.003-0.004-0.003c0.001,0.001,0.003,0.002,0.004,0.003
		c1.183,1.02,2.548,1.777,3.831,2.652c0.007,0.005,0.013,0.009,0.02,0.014c-0.007-0.005-0.013-0.009-0.02-0.014
		c0.007,0.005,0.014,0.009,0.021,0.014c0.859-0.036,1.718-0.075,2.577-0.114c0.254-0.011,0.509-0.022,0.762-0.033
		c0,0,0.001,0.001,0.001,0.001c1.128,0.827,2.26,1.659,3.394,2.49l0,0c-1.994,6.498-9.748-0.153-12.186,5.335
		c0,0-0.001,0.001-0.001,0.001l-0.004-0.021c-2.995-3.425-6.703-2.071-10.289-1.536c-1.072,0.18-2.144,0.365-3.215,0.553l0,0
		c-19.506-14.234-44.979-10.477-65.62-21.676c-3.847-2.087-9.662-1.361-14.425-0.769c-9.711,1.207-18.252-6.433-28.072-3.259
		c-5.885-14.351-28.947-8.05-31.712-26.41c-0.409-2.713-3.779-0.958-5.709-1.524c-2.88-0.846-7.387-0.694-5.967-5.413
		c0.826-2.744,4.626-2.301,7.209-2.983c13.935,3.058,28.278,4.323,41.725,9.518C325.72,459.168,326.79,458.993,327.858,458.813z"/>
	<path fill="#A69F5A" d="M338.735,463.565c-0.53-0.362-1.059-0.724-1.589-1.086C337.691,462.818,338.232,463.163,338.735,463.565z"
		/>
	<polygon fill="#A69F5A" points="442.326,502.507 442.32,502.503 442.326,502.507 	"/>
	<path fill="#9B9551" d="M345.794,465.716c2.679-0.4,5.194-0.254,7.03,2.13C350.144,468.246,347.635,468.087,345.794,465.716z"/>
	<path fill="none" stroke="#9B9551" stroke-width="0" stroke-linecap="round" stroke-linejoin="round" d="M369.747,474.049
		c-0.945-0.649-1.89-1.299-2.835-1.948"/>
	<path fill="none" stroke="#9B9551" stroke-width="0" stroke-linecap="round" stroke-linejoin="round" d="M369.747,474.049
		c0.324,0.223,0.648,0.445,0.973,0.668"/>
	<path fill="none" stroke="#9B9551" stroke-width="0" stroke-linecap="round" stroke-linejoin="round" d="M362.689,471.916
		c0.329,0.226,0.658,0.452,0.986,0.678"/>
	<path fill="none" stroke="#9B9551" stroke-width="0" stroke-linecap="round" stroke-linejoin="round" d="M362.689,471.916
		c-0.941-0.648-1.882-1.295-2.824-1.942"/>
	<polygon fill="#9B9551" points="356.443,461.31 355.938,462.024 354.959,460.799 	"/>
	<path fill="none" stroke="#9B9551" stroke-width="0" stroke-linecap="round" stroke-linejoin="round" d="M352.821,467.846
		c1.27,0.879,2.54,1.758,3.81,2.637"/>
	
		<line fill="none" stroke="#9B9551" stroke-width="0" stroke-linecap="round" stroke-linejoin="round" x1="345.786" y1="465.717" x2="345.778" y2="465.711"/>
	<path fill="none" stroke="#9B9551" stroke-width="0" stroke-linecap="round" stroke-linejoin="round" d="M345.778,465.711
		c-1.279-0.88-2.558-1.76-3.837-2.64"/>
	
		<line fill="none" stroke="#9B9551" stroke-width="0" stroke-linecap="round" stroke-linejoin="round" x1="338.735" y1="463.565" x2="338.739" y2="463.568"/>
	<path fill="none" stroke="#9B9551" stroke-width="0" stroke-linecap="round" stroke-linejoin="round" d="M338.735,463.565
		c-0.53-0.362-1.059-0.724-1.589-1.086"/>
	<path fill="none" stroke="#9B9551" stroke-width="0" stroke-linecap="round" stroke-linejoin="round" d="M334.9,460.944
		c0.749,0.512,1.497,1.023,2.246,1.535"/>
	
		<line fill="none" stroke="#9B9551" stroke-width="0" stroke-linecap="round" stroke-linejoin="round" x1="327.861" y1="458.815" x2="327.858" y2="458.813"/>
	<path fill="none" stroke="#9B9551" stroke-width="0" stroke-linecap="round" stroke-linejoin="round" d="M330.236,460.435
		c-0.792-0.54-1.583-1.08-2.375-1.621"/>
	<path fill="none" stroke="#9B9551" stroke-width="0" stroke-linecap="round" stroke-linejoin="round" d="M330.236,460.435
		c0.486,0.332,0.972,0.664,1.457,0.995"/>
	<path fill="#789D62" d="M291.743,502.803c-3.21,11.911,2.194,19.853,8.349,27.577c3.048,3.825,5.831,7.861,8.734,11.802
		c-4.825,1.005-8.227-1.874-12.03-4.093c-12.818-7.476-23.355-17.604-33.58-28.135c-1.237-0.88-2.473-1.76-3.709-2.641
		c-1.485-1.975-2.97-3.951-4.455-5.927c-1.288-0.853-2.462-1.864-3.756-2.707l-0.029-0.028c-1.24-0.887-2.474-1.78-3.703-2.68
		c0,0-0.069-0.011-0.069-0.011c0,0,0,0,0,0c1.625-4.02,5.507-5.645,8.604-8.103l0,0
		C263.839,500.999,275.707,505.431,291.743,502.803z"/>
	<path fill="#A2A964" d="M986.899,646.572c-0.33,0.541-0.662,1.082-0.995,1.622C986.127,647.592,986.435,647.039,986.899,646.572z"
		/>
	<path fill="#738D46" d="M332.118,541.546c12.646,6.742,27.578,3.768,40.506,9.469c1.265,0.558,3.459,0.051,4.774-0.722
		c6.023-3.545,12.807-1.885,19.142-3.135c-2.539,6.923-7.39,13.146-6.389,21.139c0.178,1.094,0.355,2.187,0.533,3.28
		c0,0-0.001,0-0.002-0.001c-4.499-0.339-8.999-0.677-13.5-1.016c0,0,0,0-0.001,0c-2.982-1.334-5.955-3.79-8.95-3.818
		c-17.4-0.162-28.893-15.915-46.045-17.017c-3.713-0.238-7.53-4.214-10.044-7.983c-0.001-0.001-0.001-0.001-0.001-0.001
		C318.776,539.252,325.46,541.713,332.118,541.546z"/>
	<path fill="none" stroke="#A09E57" stroke-width="0" stroke-linecap="round" stroke-linejoin="round" d="M263.216,509.954
		c-1.237-0.881-2.474-1.761-3.71-2.641"/>
	<path fill="none" stroke="#A09E57" stroke-width="0" stroke-linecap="round" stroke-linejoin="round" d="M255.051,501.386
		c-1.252-0.902-2.505-1.805-3.757-2.707"/>
	<path fill="none" stroke="#A09E57" stroke-width="0" stroke-linecap="round" stroke-linejoin="round" d="M251.265,498.651
		c-1.236-0.893-2.471-1.786-3.704-2.679"/>
	<path fill="#4A8556" d="M816.939,186.311c1.282,0.492,1.495,1.29,0.638,2.393c-0.374-0.325-0.96-0.593-1.064-0.988
		C816.408,187.312,816.778,186.784,816.939,186.311z"/>
	<polygon fill="#56914F" points="304.326,627.88 303.348,626.654 304.83,627.167 	"/>
	<path fill="#518B57" d="M850.216,279.693c-0.007-0.769,1.116-2.254,1.618-2.212c4.344,0.365,5.628,3.386,6.077,10.937
		C854.073,283.812,850.254,283.699,850.216,279.693z"/>
	<path fill="#A09E57" d="M430.434,511.299c3.586-0.535,7.294-1.889,10.289,1.536C437.141,513.346,433.436,514.677,430.434,511.299z"
		/>
	<path fill="none" stroke="#A09E57" stroke-width="0" stroke-linecap="round" stroke-linejoin="round" d="M446.159,505.162
		c0.007,0.005,0.013,0.009,0.02,0.014"/>
	<path fill="none" stroke="#A09E57" stroke-width="0" stroke-linecap="round" stroke-linejoin="round" d="M446.159,505.162
		c-1.277-0.883-2.554-1.768-3.831-2.652"/>
	
		<line fill="none" stroke="#A09E57" stroke-width="0" stroke-linecap="round" stroke-linejoin="round" x1="442.323" y1="502.507" x2="442.327" y2="502.51"/>
	
		<line fill="none" stroke="#A09E57" stroke-width="0" stroke-linecap="round" stroke-linejoin="round" x1="442.326" y1="502.507" x2="442.326" y2="502.507"/>
	
		<line fill="none" stroke="#A09E57" stroke-width="0" stroke-linecap="round" stroke-linejoin="round" x1="442.326" y1="502.507" x2="442.32" y2="502.503"/>
	<path fill="none" stroke="#A09E57" stroke-width="0" stroke-linecap="round" stroke-linejoin="round" d="M438.514,499.816
		c1.269,0.896,2.537,1.792,3.806,2.687"/>
	<path fill="none" stroke="#96914E" stroke-width="0" stroke-linecap="round" stroke-linejoin="round" d="M395.107,480.608
		c1.273,0.852,2.546,1.704,3.819,2.555"/>
	<path fill="#A69F5A" d="M310.518,486.068c-0.24-0.435-0.593-0.853-0.658-1.313c-0.022-0.154,0.692-0.411,1.07-0.622
		c0.241,0.435,0.594,0.853,0.66,1.313C311.612,485.598,310.896,485.857,310.518,486.068z"/>
	<polygon fill="#A69F5A" points="261.204,454.951 260.226,453.724 261.708,454.237 	"/>
</g>
</svg>
